<svg xmlns="http://www.w3.org/2000/svg" xmlns:xlink="http://www.w3.org/1999/xlink" width="1366" height="332" viewBox="0 0 1366 332">
  <defs>
    <clipPath id="clip-path">
      <rect id="Rectangle_43" data-name="Rectangle 43" width="1336.799" height="322.403" fill="none"/>
    </clipPath>
  </defs>
  <g id="Group_756" data-name="Group 756" transform="translate(0 -80)">
    <rect id="Rectangle_6" data-name="Rectangle 6" width="1366" height="332" transform="translate(0 80)" fill="#0049ff"/>
    <g id="Group_754" data-name="Group 754" transform="translate(0 -138.202)">
      <g id="Group_753" data-name="Group 753" transform="translate(15 223)">
        <path id="Path_1" data-name="Path 1" d="M1187.122,70.443l1.3,2.778,24.315-12.2-1.332-2.781Z" fill="#fff"/>
        <path id="Path_2" data-name="Path 2" d="M1252.289,61.757l1.354,2.431,20.341-9.6.012-.006-1.124-2.673Z" fill="#fff"/>
        <path id="Path_3" data-name="Path 3" d="M1277.224,53.065l14.552-6.867-.72-2.981-14.966,7.152Z" fill="#fff"/>
        <path id="Path_4" data-name="Path 4" d="M1195.72,88.81l1.032,2.211,24.75-11.674.008,0-1.122-2.336Z" fill="#fff"/>
        <path id="Path_5" data-name="Path 5" d="M1190.993,87.12l-1.222-2.6L1160.89,98.625l1.159,2.338Z" fill="#fff"/>
        <path id="Path_6" data-name="Path 6" d="M1223.6,75.47l1.125,2.355,25.674-12.11-1.34-2.417Z" fill="#fff"/>
        <path id="Path_7" data-name="Path 7" d="M1268.778,32.88l17.588-8.828-.769-3.119L1267.564,30Z" fill="#fff"/>
        <path id="Path_8" data-name="Path 8" d="M1269.111,14.347l-132.3,67.446-3.962,11.947,149.307-75.066Z" fill="#fbd616"/>
        <path id="Path_9" data-name="Path 9" d="M1271.925,40.413l16.473-8.042-.006-.012-1.157-4.751-17.081,8.574Z" fill="#fff"/>
        <path id="Path_10" data-name="Path 10" d="M1274.711,47.075l15.47-7.4-.919-3.77-15.96,7.8Z" fill="#fff"/>
        <path id="Path_11" data-name="Path 11" d="M1241.822,42.939l1.512,2.718,22.245-11.172-1.206-2.879Z" fill="#fff"/>
        <path id="Path_12" data-name="Path 12" d="M1271.495,48.619l-1.4-3.347-21.214,10.359,1.671,3.005Z" fill="#fff"/>
        <path id="Path_13" data-name="Path 13" d="M1245.072,48.77l2.072,3.749,21.574-10.539-1.754-4.2Z" fill="#fff"/>
        <path id="Path_14" data-name="Path 14" d="M1222.069,72.256l25.259-12.078-1.653-2.972-24.972,12.2Z" fill="#fff"/>
        <path id="Path_15" data-name="Path 15" d="M1186.742,78.046l-28.855,14.483,1.425,2.9,28.949-14.142Z" fill="#fff"/>
        <path id="Path_16" data-name="Path 16" d="M1219.159,66.191l24.78-12.106-2.063-3.718L1217.457,62.63Z" fill="#fff"/>
        <path id="Path_17" data-name="Path 17" d="M1192.977,82.95l1.23,2.634L1218.852,73.8l-1.351-2.834Z" fill="#fff"/>
        <path id="Path_18" data-name="Path 18" d="M1238.63,44.548l-24.042,12.088,1.333,2.78,24.224-12.158-1.506-2.707Z" fill="#fff"/>
        <path id="Path_19" data-name="Path 19" d="M1133.114,81.618l-9.254-3.388-4.538,13.681,9.35,3.1Z" fill="#fbd616"/>
        <path id="Path_20" data-name="Path 20" d="M1191.464,79.725l24.493-11.976-1.689-3.518-24.337,12.215Z" fill="#fff"/>
        <g id="Group_752" data-name="Group 752">
          <g id="Group_751" data-name="Group 751" clip-path="url(#clip-path)">
            <path id="Path_21" data-name="Path 21" d="M1054.286,152.991a2.937,2.937,0,1,0,1.858,3.715,2.937,2.937,0,0,0-1.858-3.715" fill="#c96335"/>
            <path id="Path_22" data-name="Path 22" d="M1105.214,62.664l-11.677,7.031.443,3.819,13.772-8.449Z" fill="#c96335"/>
            <path id="Path_23" data-name="Path 23" d="M1092.483,124.954a2.937,2.937,0,1,0,1.866,3.718,2.943,2.943,0,0,0-1.866-3.718" fill="#c96335"/>
            <path id="Path_24" data-name="Path 24" d="M1073.63,138.021a2.937,2.937,0,1,0,1.866,3.718,2.943,2.943,0,0,0-1.866-3.718" fill="#c96335"/>
            <path id="Path_25" data-name="Path 25" d="M1156.106,96.992,1154.7,94.13l-20.011,10.044c.315.893.62,1.839.921,2.831Z" fill="#fff"/>
            <path id="Path_26" data-name="Path 26" d="M1112.112,110.567a2.937,2.937,0,1,0,1.858,3.715,2.944,2.944,0,0,0-1.858-3.715" fill="#c96335"/>
            <path id="Path_27" data-name="Path 27" d="M1160.413,105.7l-22.8,10.9,0,.008c.089.753.152,1.5.193,2.224l23.6-11.126Z" fill="#fff"/>
            <path id="Path_28" data-name="Path 28" d="M1185.229,74.821l-1.3-2.769L1154.963,86.62l1.343,2.718Z" fill="#fff"/>
            <path id="Path_29" data-name="Path 29" d="M1128.548,98.728l-11.16-3.7c-3.909,2.949-22.456,16.934-40.893,30.758-36.816,27.612-41.831,31.152-43.091,31.608a1.281,1.281,0,0,0,.572-.252c-1.008.971-6,9.2-3.826,15.786,1.54,4.7,6.523,7.573,14.773,8.553,26.537,3.156,43.889-39.908,44.063-40.348l.7-1.76,1.715.8c.254.112,25.228,11.606,37.53-2.891,10.586-12.464,2.691-32.016.078-37.616-.184-.38-.334-.693-.458-.941m-77.233,63.224a6.5,6.5,0,1,1,8.213-4.123,6.506,6.506,0,0,1-8.213,4.123m19.343-14.97a6.5,6.5,0,1,1,8.222-4.12,6.505,6.505,0,0,1-8.222,4.12m18.853-13.067a6.5,6.5,0,1,1,8.222-4.12,6.506,6.506,0,0,1-8.222,4.12m19.629-14.387a6.5,6.5,0,1,1,8.214-4.123,6.508,6.508,0,0,1-8.214,4.123" fill="#e4b446"/>
            <path id="Path_30" data-name="Path 30" d="M1163.627,104.163l1,2.022,28.893-13.634.009,0-1.027-2.2Z" fill="#fff"/>
            <path id="Path_31" data-name="Path 31" d="M1151.774,88.22l-19.58,9.848c.337.713.761,1.643,1.22,2.753l.008,0,19.7-9.893-1.337-2.707Z" fill="#fff"/>
            <path id="Path_32" data-name="Path 32" d="M1082.05,77.315l-11.677,7.031.443,3.819,13.775-8.458Z" fill="#c96335"/>
            <path id="Path_33" data-name="Path 33" d="M1087.415,101.72l2,1.246-.311-2.376-.525-3.94-1.854-14.064-15.118,9.28,12.492,7.787Z" fill="#ee854c"/>
            <path id="Path_34" data-name="Path 34" d="M1060.039,93.787l-11.668,7.034.445,3.811,13.769-8.442Z" fill="#c96335"/>
            <path id="Path_35" data-name="Path 35" d="M1109.919,86.652l2.661,1.662-.416-3.162-.525-3.94-1.749-13.278-15.126,9.278,11.84,7.373Z" fill="#ee854c"/>
            <path id="Path_36" data-name="Path 36" d="M1039.295,110.377l-2.859-2.028-10.58,8.6.967,3.711,12.461-10.274Z" fill="#c96335"/>
            <path id="Path_37" data-name="Path 37" d="M1043.58,131.07l3.732,1.66-.972-3.5-1.015-3.623-3.529-12.694-13.674,11.3,11.6,5.144Z" fill="#ee854c"/>
            <path id="Path_38" data-name="Path 38" d="M1115.545,91.946l.008,0,3.862-11.643-.009,0-3.937,2.639.679,5.147a3.461,3.461,0,0,1-4.5,3.739,3.789,3.789,0,0,1-.756-.354l-4.233-2.643-14.249,9.549.573,4.36a3.449,3.449,0,0,1-4.5,3.731,3.227,3.227,0,0,1-.747-.351l-3.573-2.227-13.97,9.36.784,5.961a3.461,3.461,0,0,1-4.5,3.739,3.3,3.3,0,0,1-.753-.362l-4.913-3.057-11.36,7.606,1.355,4.864a3.448,3.448,0,0,1-4.4,4.2c-.11-.037-.22-.073-.328-.118l-5.836-2.593c-3.778,5.021-7.378,13.923-9.084,21.528a3.16,3.16,0,0,1,1.667-1.119,1.568,1.568,0,0,0-.5.125c3.222-1.9,51.23-37.942,83.214-62.085" fill="#fbd616"/>
            <path id="Path_39" data-name="Path 39" d="M1064.067,117.353l3.346,2.087-.524-3.969-.522-3.948-1.643-12.463-15.126,9.278,11.154,6.948Z" fill="#ee854c"/>
            <path id="Path_40" data-name="Path 40" d="M1137.06,112.9l.009,0,21.766-10.41-1.148-2.316-21.13,10.33c.08.356.159.711.236,1.074.1.445.187.879.267,1.319" fill="#fff"/>
            <path id="Path_41" data-name="Path 41" d="M1295.925,48.185,1288,15.737l-1.341.673-17.836-5.916L1135.231,78.6,1122.5,73.939l-7.555,5.055-1.706-12.9a2.619,2.619,0,0,0-1.2-1.893l-6.352-6-15.961,9.612L1090.794,77l0,.008c0,.065,0,.121-.006.186a3.043,3.043,0,0,0,1.454,2.642l11.1,6.924-11.455,7.668-1.8-13.681a2.646,2.646,0,0,0-1.189-1.878l-6.366-6.009-15.961,9.612,1.063,9.143-.006.017a1.91,1.91,0,0,0-.005.214,3.1,3.1,0,0,0,1.461,2.645l11.769,7.331-11.179,7.487-1.6-12.091a2.619,2.619,0,0,0-1.2-1.892l-6.352-6-15.961,9.612,1.066,9.163,0,.008c0,.065-.007.138-.011.2a3.07,3.07,0,0,0,1.462,2.645l10.42,6.5-9.043,6.055-3.579-12.88a2.718,2.718,0,0,0-1.461-1.714l-7.125-5.049-14.46,11.743,2.345,8.986,0,.02a.237.237,0,0,0,0,.132,3.072,3.072,0,0,0,1.811,2.413l10.931,4.846c-5.87,8.3-10.991,24.362-10.262,32.671l0,.008a21.153,21.153,0,0,0-.58,3.649c-.52,8.929,5.418,13.17,11.476,15.18a35.719,35.719,0,0,0,6.96,1.5c12.217,1.45,24.384-5.531,35.189-20.187a112.065,112.065,0,0,0,11.893-20.709,59.48,59.48,0,0,0,13.626,3.655c11.42,1.561,20.557-1.269,26.43-8.187a27.174,27.174,0,0,0,6.184-16.836Zm-102.4,44.366-28.893,13.635-1-2.023L1192.5,90.354l1.026,2.2ZM1154.7,94.13l1.408,2.862L1135.607,107c-.3-.992-.606-1.938-.92-2.831Zm-21.276,6.694-.009,0c-.458-1.11-.882-2.04-1.219-2.752l19.58-9.849.008,0,1.338,2.707Zm21.54-14.2,28.968-14.568,1.3,2.769-28.923,14.517Zm2.726,13.563,1.147,2.316-21.767,10.41-.008,0c-.08-.44-.171-.874-.267-1.319-.077-.363-.156-.719-.236-1.074Zm1.623-4.758-1.425-2.9,28.856-14.483,1.518,3.236Zm87.833-42.906-2.072-3.749,21.892-10.988,1.755,4.2Zm22.952-7.246,1.4,3.347-20.941,10.017-1.671-3.006Zm-22.768,14.905-25.259,12.078-1.366-2.848,24.971-12.2Zm-3.994-14.52-1.513-2.718,22.552-11.333,1.2,2.879Zm-1.459,4.71,2.064,3.718-24.781,12.105-1.7-3.56ZM1218.852,73.8l-24.646,11.785-1.23-2.634L1217.5,70.966Zm-2.932-14.383-1.332-2.781,24.042-12.087.008,0,1.507,2.707Zm-1.652,4.814,1.688,3.519-24.493,11.975-1.533-3.279Zm-25.851,8.99-1.3-2.778L1211.4,58.237l1.332,2.78Zm1.354,11.3,1.221,2.6-28.943,13.843-1.16-2.338Zm31.731-5.17-24.75,11.674-1.032-2.211,24.667-11.8,1.123,2.336Zm3.228-1.522L1223.6,75.47,1249.063,63.3l1.34,2.416Zm49.254-23.233-20.341,9.6-1.354-2.431,20.583-9.844,1.123,2.674Zm17.792-8.394-14.553,6.867-1.134-2.7,14.966-7.152Zm-1.595-6.52-15.47,7.4-1.409-3.37,15.96-7.8Zm-1.79-7.319.006.012-16.473,8.042-1.771-4.231,17.081-8.573ZM1285.6,20.933l.769,3.119-17.588,8.828L1267.564,30Zm-148.785,60.86,132.3-67.445,13.048,4.326L1132.85,93.741Zm-12.953-3.563,9.254,3.389-4.442,13.394-9.349-3.1Zm-29.88-4.715-.442-3.819,11.676-7.032,2.538,2.4Zm.784,3.7,15.127-9.278,1.748,13.278.525,3.94.416,3.162-2.661-1.662-3.315-2.067Zm-23.947,10.954-.443-3.819,11.677-7.031,2.54,2.392Zm.792,3.7,15.118-9.28,1.854,14.064.525,3.94.31,2.376-2-1.246-3.316-2.067Zm-22.792,12.766-.445-3.811,11.668-7.034,2.546,2.4Zm.781,3.7,15.127-9.277,1.643,12.463.521,3.948.525,3.968-3.346-2.086-3.316-2.067Zm-22.775,12.32-.967-3.711,10.58-8.6,2.859,2.028-.011.006Zm1.3,3.559,13.675-11.3,3.529,12.694,1.014,3.624.974,3.5-3.733-1.661-3.857-1.711Zm3.044,30.809c1.7-7.6,5.3-16.507,9.083-21.528l5.837,2.593c.107.045.217.081.327.118a3.45,3.45,0,0,0,4.4-4.2l-1.356-4.864,11.36-7.606,4.912,3.057a3.285,3.285,0,0,0,.754.362,3.46,3.46,0,0,0,4.5-3.739l-.784-5.961,13.971-9.36,3.572,2.227a3.253,3.253,0,0,0,.748.351,3.451,3.451,0,0,0,4.5-3.731l-.573-4.36,14.249-9.55,4.233,2.644a3.758,3.758,0,0,0,.755.354,3.461,3.461,0,0,0,4.5-3.739l-.679-5.147,3.937-2.639.008,0-3.861,11.643-.009,0c-31.983,24.142-79.992,60.186-83.214,62.085a1.576,1.576,0,0,1,.5-.125,3.153,3.153,0,0,0-1.667,1.119m97.763-17.74c-12.3,14.5-37.277,3-37.53,2.891l-1.716-.8-.7,1.76c-.173.44-17.527,43.5-44.064,40.348-8.249-.98-13.232-3.853-14.773-8.553-2.172-6.59,2.819-14.815,3.827-15.786a1.284,1.284,0,0,1-.572.251c1.259-.455,6.274-3.995,43.09-31.607,18.438-13.824,36.985-27.809,40.893-30.758l11.16,3.7c.125.248.275.561.459.941,2.613,5.6,10.508,25.152-.078,37.616m8.871-18.452c-.041-.727-.1-1.471-.192-2.224l0-.008,22.8-10.9.987,2.008Z"/>
            <path id="Path_42" data-name="Path 42" d="M1055.409,149.607a6.5,6.5,0,1,0,4.119,8.222,6.508,6.508,0,0,0-4.119-8.222m-2.972,8.96a2.937,2.937,0,1,1,3.707-1.861,2.936,2.936,0,0,1-3.707,1.861"/>
            <path id="Path_43" data-name="Path 43" d="M1074.752,134.637a6.5,6.5,0,1,0,4.128,8.225,6.513,6.513,0,0,0-4.128-8.225m-2.972,8.96a2.937,2.937,0,1,1,3.715-1.858,2.941,2.941,0,0,1-3.715,1.858"/>
            <path id="Path_44" data-name="Path 44" d="M1093.606,121.57a6.5,6.5,0,1,0,4.128,8.225,6.507,6.507,0,0,0-4.128-8.225m-2.972,8.96a2.937,2.937,0,1,1,3.715-1.858,2.941,2.941,0,0,1-3.715,1.858"/>
            <path id="Path_45" data-name="Path 45" d="M1113.234,107.183a6.5,6.5,0,1,0,4.119,8.222,6.508,6.508,0,0,0-4.119-8.222m-2.972,8.96a2.937,2.937,0,1,1,3.707-1.861,2.943,2.943,0,0,1-3.707,1.861"/>
            <path id="Path_46" data-name="Path 46" d="M1330.336,1.9v2c0,1.14-1.13,6.66-4.3,18.71-2.78,10.58-8.1,18.29-14.27,27.22-3.46,5.01-7.38,10.69-11.34,17.59-10.21,17.81,1.36,34.13,1.86,34.82l6.63,9.15-22.63-15.25c-11.36-7.66-21.94-24.9-25.35-30.81a34.272,34.272,0,0,1-4.41,2.7c-11.27,5.64-13.28,26.42-13.3,26.63l-.26,2.91-2.63-1.3c-.68-.35-4.34-2.7-8.62-15.27-4.84-14.19-4.19-27.61,1.82-37.8,3.03-5.13,2.77-16.3,1.75-25.81-1.23,6.25-3.07,12.88-5.63,15.59-.86.91-1.93,1.95-3.07,3.06-5.17,5.03-12.98,12.64-13.62,20.3-.9,10.86-10.45,19.08-10.86,19.43l-8.2,6.95,5.15-9.44s1.26-2.72-.19-8.74a39.015,39.015,0,0,0-3.27-7.26c-3.9-7.49-9.25-17.74-6.02-28.51a39,39,0,0,0-.43-24.13L1188,1.861l44.81.07V1.9Z" fill="#49e4ab"/>
            <path id="Path_47" data-name="Path 47" d="M1232.806,1.9v.03L1188,1.861l1.15,2.78a39,39,0,0,1,.43,24.13c-3.23,10.77,2.12,21.02,6.02,28.51a39.015,39.015,0,0,1,3.27,7.26c1.45,6.02.19,8.74.19,8.74l-5.15,9.44,8.2-6.95c.41-.35,9.96-8.57,10.86-19.43.64-7.66,8.45-15.27,13.62-20.3,1.14-1.11,2.21-2.15,3.07-3.06,2.56-2.71,4.4-9.34,5.63-15.59,1.02,9.51,1.28,20.68-1.75,25.81-6.01,10.19-6.66,23.61-1.82,37.8,4.28,12.57,7.94,14.92,8.62,15.27l2.63,1.3.26-2.91c.02-.21,2.03-20.99,13.3-26.63a34.272,34.272,0,0,0,4.41-2.7c3.41,5.91,13.99,23.15,25.35,30.81l22.63,15.25-6.63-9.15c-.5-.69-12.07-17.01-1.86-34.82,3.96-6.9,7.88-12.58,11.34-17.59,6.17-8.93,11.49-16.64,14.27-27.22,3.17-12.05,4.3-17.57,4.3-18.71v-2Zm-6.06,28.33c-.8.85-1.8,1.82-2.95,2.94-5.6,5.45-14.05,13.68-14.81,22.84-.41,4.92-3.07,9.34-5.47,12.4a28.467,28.467,0,0,0-.76-4.8,40.2,40.2,0,0,0-3.61-8.18c-3.79-7.26-8.5-16.3-5.74-25.51a43.9,43.9,0,0,0,.35-24.05l16.98.03c-.64,7-1.6,14.31-4.21,20.75a25.077,25.077,0,0,1-2.76,4.95c-3.65,5.31-3.98,13.13-.41,18.36-1.14-5.93-.07-11.62,3.53-16.17,6.22-7.79,7.89-18.13,8.03-27.89l18.11.03c-1.02,8.61-3.38,21.24-6.28,24.3m27.99,34.22c-9.76,4.89-13.5,18.23-14.83,25.32a52.36,52.36,0,0,1-4.4-10.06c-4.46-13.07-3.93-25.31,1.47-34.48,5.49-9.29,2.04-31.86.7-39.33h23.39c.44,1.65.81,3.42,1.09,5.14,1.43,8.64.36,17.78-4.62,25.12-.92,1.48-2.74,4.44-3.64,5.93-2.44,3.95-4.76,7.96-7.33,11.88a40.742,40.742,0,0,0,5.2-4.79,116.172,116.172,0,0,0,8.97-10.84,32.894,32.894,0,0,0,3.81-6.31c3.7-8.21,3.66-17.67.88-26.13h25.13a87.664,87.664,0,0,1-3.24,19.12c-3.28,11.2-20.68,33.48-32.58,39.43m67.43-42.86c-2.6,9.91-7.49,16.99-13.69,25.97-3.5,5.07-7.47,10.82-11.52,17.87-7.18,12.53-4.65,24.59-1.68,31.94l-6.76-4.55c-10.84-7.3-21.42-24.82-24.37-29.95,11.58-9.59,24.14-26.92,27.01-36.73a90.121,90.121,0,0,0,3.41-20.24h3.72c-.4,7.77-1.28,15.69-3.84,23.04a23.247,23.247,0,0,1-3.23,6.01c-5.69,7.27-7.03,17.37-4.57,26.12.86-7.91,1.7-15.9,6.36-22.34.6-.71,1.79-2.23,2.35-2.98a31.414,31.414,0,0,0,4.17-9.05,75.05,75.05,0,0,0,2.85-20.8h23.61c-.45,2.27-1.48,6.82-3.82,15.69"/>
            <path id="Path_48" data-name="Path 48" d="M1222.032,30.623c-1.384,1.95-3.742,2.653-5.269,1.571s-1.641-3.542-.258-5.492,3.742-2.653,5.269-1.571,1.641,3.542.258,5.492" fill="#8dfec6"/>
            <path id="Path_49" data-name="Path 49" d="M1214.141,38.728a1.691,1.691,0,1,1-.125-2.661,1.911,1.911,0,0,1,.125,2.661" fill="#8dfec6"/>
            <path id="Path_50" data-name="Path 50" d="M1281.732,75.031a1.691,1.691,0,1,1,2.612.521,1.912,1.912,0,0,1-2.612-.521" fill="#8dfec6"/>
            <path id="Path_51" data-name="Path 51" d="M1285.537,19.431c-2.361,3.328-6.385,4.527-8.99,2.68s-2.8-6.043-.44-9.37,6.385-4.527,8.989-2.68,2.8,6.042.441,9.37" fill="#8dfec6"/>
            <path id="Path_52" data-name="Path 52" d="M1319.422,15.483c-1.366,1.925-3.695,2.62-5.2,1.551s-1.621-3.5-.256-5.422,3.7-2.62,5.2-1.551,1.621,3.5.255,5.422" fill="#8dfec6"/>
            <path id="Path_53" data-name="Path 53" d="M1313.727,22.354a1.732,1.732,0,0,1-2.313.689,1.732,1.732,0,0,1-.113-2.41,1.733,1.733,0,0,1,2.313-.69,1.733,1.733,0,0,1,.113,2.411" fill="#8dfec6"/>
            <path id="Path_54" data-name="Path 54" d="M1280.551,61.61c2.1,3.127,1.811,6.991-.636,8.631s-6.13.435-8.225-2.692-1.811-6.99.636-8.631,6.129-.435,8.225,2.692" fill="#8dfec6"/>
            <path id="Path_55" data-name="Path 55" d="M1279.336,31.136c-1.144,1.612-3.094,2.193-4.355,1.3s-1.358-2.927-.214-4.539,3.094-2.194,4.355-1.3,1.358,2.928.214,4.54" fill="#8dfec6"/>
            <path id="Path_56" data-name="Path 56" d="M1241.814,74.484c-1.144,1.612-3.094,2.194-4.356,1.3s-1.358-2.928-.214-4.541,3.094-2.194,4.356-1.3,1.358,2.929.214,4.541" fill="#8dfec6"/>
            <path id="Path_57" data-name="Path 57" d="M1244.981,12.111a2.4,2.4,0,0,1-3.2.954,2.4,2.4,0,0,1-.157-3.336,2.4,2.4,0,0,1,3.2-.954,2.4,2.4,0,0,1,.157,3.336" fill="#8dfec6"/>
            <path id="Path_58" data-name="Path 58" d="M1250.7,10.5a1.548,1.548,0,0,1-2.065.616,1.548,1.548,0,0,1-.1-2.153,1.549,1.549,0,0,1,2.066-.616,1.549,1.549,0,0,1,.1,2.153" fill="#8dfec6"/>
            <path id="Path_59" data-name="Path 59" d="M13.523,1.9v2c0,1.14,1.13,6.66,4.3,18.71,2.78,10.58,8.1,18.29,14.27,27.22,3.46,5.01,7.38,10.69,11.34,17.59,10.21,17.81-1.36,34.13-1.86,34.82l-6.63,9.15,22.63-15.25c11.36-7.66,21.94-24.9,25.35-30.81a34.274,34.274,0,0,0,4.41,2.7c11.27,5.64,13.28,26.42,13.3,26.63l.26,2.91,2.63-1.3c.68-.35,4.34-2.7,8.62-15.27,4.84-14.19,4.19-27.61-1.82-37.8-3.03-5.13-2.77-16.3-1.75-25.81,1.23,6.25,3.07,12.88,5.63,15.59.86.91,1.93,1.95,3.07,3.06,5.17,5.03,12.98,12.64,13.62,20.3.9,10.86,10.45,19.08,10.86,19.43l8.2,6.95-5.15-9.44s-1.26-2.72.19-8.74a39.019,39.019,0,0,1,3.27-7.26c3.9-7.49,9.25-17.74,6.02-28.51a39,39,0,0,1,.43-24.13l1.15-2.78-44.81.07V1.9Z" fill="#49e4ab"/>
            <path id="Path_60" data-name="Path 60" d="M13.523,1.9v2c0,1.14,1.13,6.66,4.3,18.71,2.78,10.58,8.1,18.29,14.27,27.22,3.46,5.01,7.38,10.69,11.34,17.59,10.21,17.81-1.36,34.13-1.86,34.82l-6.63,9.15,22.63-15.25c11.36-7.66,21.94-24.9,25.35-30.81a34.274,34.274,0,0,0,4.41,2.7c11.27,5.64,13.28,26.42,13.3,26.63l.26,2.91,2.63-1.3c.68-.35,4.34-2.7,8.62-15.27,4.84-14.19,4.19-27.61-1.82-37.8-3.03-5.13-2.77-16.3-1.75-25.81,1.23,6.25,3.07,12.88,5.63,15.59.86.91,1.93,1.95,3.07,3.06,5.17,5.03,12.98,12.64,13.62,20.3.9,10.86,10.45,19.08,10.86,19.43l8.2,6.95-5.15-9.44s-1.26-2.72.19-8.74a39.019,39.019,0,0,1,3.27-7.26c3.9-7.49,9.25-17.74,6.02-28.51a39,39,0,0,1,.43-24.13l1.15-2.78-44.81.07V1.9Zm97.31,4.03,18.11-.03c.14,9.76,1.81,20.1,8.03,27.89,3.6,4.55,4.67,10.24,3.53,16.17,3.57-5.23,3.24-13.05-.41-18.36a25.08,25.08,0,0,1-2.76-4.95c-2.61-6.44-3.57-13.75-4.21-20.75l16.98-.03a43.9,43.9,0,0,0,.35,24.05c2.76,9.21-1.95,18.25-5.74,25.51a40.205,40.205,0,0,0-3.61,8.18,28.476,28.476,0,0,0-.76,4.8c-2.4-3.06-5.06-7.48-5.47-12.4-.76-9.16-9.21-17.39-14.81-22.84-1.15-1.12-2.15-2.09-2.95-2.94-2.9-3.06-5.26-15.69-6.28-24.3m-54.29,19.09A87.661,87.661,0,0,1,53.3,5.9h25.13c-2.78,8.46-2.82,17.92.88,26.13a32.9,32.9,0,0,0,3.81,6.31,116.182,116.182,0,0,0,8.97,10.84,40.736,40.736,0,0,0,5.2,4.79c-2.57-3.92-4.89-7.93-7.33-11.88-.9-1.49-2.72-4.45-3.64-5.93-4.98-7.34-6.05-16.48-4.62-25.12.28-1.72.65-3.49,1.09-5.14h23.39c-1.34,7.47-4.79,30.04.7,39.33,5.4,9.17,5.93,21.41,1.47,34.48a52.359,52.359,0,0,1-4.4,10.06c-1.33-7.09-5.07-20.43-14.83-25.32-11.9-5.95-29.3-28.23-32.58-39.43M17.873,5.9h23.61a75.052,75.052,0,0,0,2.85,20.8,31.416,31.416,0,0,0,4.17,9.05c.56.75,1.75,2.27,2.35,2.98,4.66,6.44,5.5,14.43,6.36,22.34,2.46-8.75,1.12-18.85-4.57-26.12a23.246,23.246,0,0,1-3.23-6.01c-2.56-7.35-3.44-15.27-3.84-23.04h3.72a90.115,90.115,0,0,0,3.41,20.24c2.87,9.81,15.43,27.14,27.01,36.73-2.95,5.13-13.53,22.65-24.37,29.95l-6.76,4.55c2.97-7.35,5.5-19.41-1.68-31.94-4.05-7.05-8.02-12.8-11.52-17.87-6.2-8.98-11.09-16.06-13.69-25.97-2.34-8.87-3.37-13.42-3.82-15.69"/>
            <path id="Path_61" data-name="Path 61" d="M121.827,30.623c1.383,1.95,3.742,2.653,5.268,1.571s1.642-3.542.259-5.492-3.742-2.653-5.269-1.571-1.641,3.542-.258,5.492" fill="#8dfec6"/>
            <path id="Path_62" data-name="Path 62" d="M129.719,38.728a1.691,1.691,0,1,0,.125-2.661,1.911,1.911,0,0,0-.125,2.661" fill="#8dfec6"/>
            <path id="Path_63" data-name="Path 63" d="M62.128,75.031a1.691,1.691,0,1,0-2.612.521,1.912,1.912,0,0,0,2.612-.521" fill="#8dfec6"/>
            <path id="Path_64" data-name="Path 64" d="M58.322,19.431c2.361,3.328,6.385,4.527,8.991,2.68s2.8-6.043.44-9.37-6.385-4.527-8.989-2.68-2.8,6.042-.442,9.37" fill="#8dfec6"/>
            <path id="Path_65" data-name="Path 65" d="M24.438,15.483c1.366,1.925,3.695,2.62,5.2,1.551s1.621-3.5.256-5.422-3.695-2.62-5.2-1.551-1.621,3.5-.255,5.422" fill="#8dfec6"/>
            <path id="Path_66" data-name="Path 66" d="M30.132,22.354a1.732,1.732,0,0,0,2.313.689,1.732,1.732,0,0,0,.113-2.41,1.733,1.733,0,0,0-2.313-.69,1.733,1.733,0,0,0-.113,2.411" fill="#8dfec6"/>
            <path id="Path_67" data-name="Path 67" d="M63.308,61.61c-2.1,3.127-1.811,6.991.636,8.631s6.13.435,8.225-2.692,1.811-6.99-.636-8.631-6.129-.435-8.225,2.692" fill="#8dfec6"/>
            <path id="Path_68" data-name="Path 68" d="M64.523,31.136c1.144,1.612,3.094,2.193,4.355,1.3s1.358-2.927.214-4.539S66,25.7,64.737,26.6s-1.358,2.928-.214,4.54" fill="#8dfec6"/>
            <path id="Path_69" data-name="Path 69" d="M102.045,74.484c1.144,1.612,3.094,2.194,4.356,1.3s1.358-2.928.214-4.541-3.094-2.194-4.356-1.3-1.358,2.929-.214,4.541" fill="#8dfec6"/>
            <path id="Path_70" data-name="Path 70" d="M98.879,12.111a2.4,2.4,0,0,0,3.2.954,2.4,2.4,0,0,0,.157-3.336,2.4,2.4,0,0,0-3.2-.954,2.4,2.4,0,0,0-.157,3.336" fill="#8dfec6"/>
            <path id="Path_71" data-name="Path 71" d="M93.157,10.5a1.548,1.548,0,0,0,2.065.616,1.547,1.547,0,0,0,.1-2.153,1.548,1.548,0,0,0-2.065-.616,1.548,1.548,0,0,0-.1,2.153" fill="#8dfec6"/>
            <path id="Path_72" data-name="Path 72" d="M1099.5,308.683v-1.176c0-.67.665-3.916,2.528-11,1.635-6.221,4.763-10.754,8.391-16.005,2.034-2.946,4.339-6.286,6.668-10.343,6-10.472-.8-20.068-1.094-20.473l-3.9-5.38,13.306,8.966c6.679,4.5,12.9,14.641,14.905,18.116a20.116,20.116,0,0,1,2.593-1.587c6.627-3.317,7.809-15.535,7.82-15.658l.153-1.712,1.547.765c.4.206,2.552,1.587,5.068,8.978,2.846,8.344,2.464,16.235-1.07,22.226-1.782,3.017-1.629,9.584-1.029,15.176.723-3.675,1.8-7.573,3.31-9.167.506-.535,1.135-1.146,1.805-1.8,3.04-2.957,7.632-7.432,8.009-11.936.529-6.385,6.144-11.219,6.385-11.424l4.822-4.087-3.028,5.551s-.741,1.6.111,5.139a22.959,22.959,0,0,0,1.923,4.268c2.293,4.4,5.439,10.431,3.54,16.764a22.927,22.927,0,0,0,.253,14.188l.676,1.635-26.348-.042v.018Z" fill="#49e4ab"/>
            <path id="Path_73" data-name="Path 73" d="M1156.842,308.682v-.017l26.348.041-.676-1.635a22.924,22.924,0,0,1-.253-14.188c1.9-6.332-1.247-12.359-3.54-16.763a22.882,22.882,0,0,1-1.922-4.269c-.853-3.54-.112-5.139-.112-5.139l3.028-5.551-4.821,4.087c-.242.206-5.857,5.039-6.386,11.425-.376,4.5-4.968,8.978-8.008,11.936-.671.652-1.3,1.264-1.805,1.8-1.506,1.593-2.588,5.492-3.311,9.167-.6-5.592-.752-12.16,1.029-15.176,3.534-5.992,3.916-13.883,1.07-22.226-2.516-7.391-4.668-8.773-5.068-8.979l-1.547-.764-.152,1.711c-.012.123-1.194,12.342-7.821,15.658a20.013,20.013,0,0,0-2.593,1.588c-2.005-3.475-8.226-13.612-14.905-18.116l-13.306-8.967,3.9,5.38c.294.406,7.1,10,1.094,20.474-2.329,4.057-4.633,7.4-6.668,10.342-3.628,5.251-6.756,9.784-8.391,16.005-1.863,7.085-2.528,10.331-2.528,11v1.176Zm3.564-16.657c.47-.5,1.058-1.07,1.734-1.729,3.293-3.2,8.261-8.044,8.708-13.429a14.242,14.242,0,0,1,3.217-7.291,16.723,16.723,0,0,0,.446,2.822,23.722,23.722,0,0,0,2.123,4.81c2.228,4.268,5,9.584,3.375,15a25.814,25.814,0,0,0-.206,14.141l-9.984-.018a43.262,43.262,0,0,1,2.476-12.2,14.777,14.777,0,0,1,1.622-2.911,9.953,9.953,0,0,0,.242-10.795,11.443,11.443,0,0,1-2.076,9.508c-3.657,4.58-4.639,10.66-4.722,16.4l-10.648-.017c.6-5.063,1.987-12.489,3.693-14.288M1143.948,271.9c5.739-2.875,7.938-10.719,8.72-14.888a30.821,30.821,0,0,1,2.587,5.915c2.622,7.685,2.311,14.882-.864,20.274-3.228,5.462-1.2,18.733-.412,23.125h-13.753c-.259-.97-.476-2.01-.641-3.022-.841-5.08-.212-10.454,2.716-14.77.541-.87,1.612-2.611,2.141-3.487,1.435-2.322,2.8-4.68,4.31-6.985a24.032,24.032,0,0,0-3.058,2.816,68.5,68.5,0,0,0-5.274,6.374,19.368,19.368,0,0,0-2.24,3.71,21.375,21.375,0,0,0-.518,15.364h-14.776a51.585,51.585,0,0,1,1.905-11.242c1.929-6.585,12.16-19.686,19.157-23.184m-39.648,25.2c1.529-5.827,4.4-9.99,8.05-15.27,2.058-2.981,4.392-6.362,6.773-10.507a21.09,21.09,0,0,0,.988-18.781l3.975,2.676c6.374,4.292,12.594,14.594,14.329,17.61-6.809,5.639-14.194,15.829-15.881,21.6a52.948,52.948,0,0,0-2.006,11.9h-2.187a48.866,48.866,0,0,1,2.258-13.547,13.661,13.661,0,0,1,1.9-3.533,17.55,17.55,0,0,0,2.687-15.359c-.505,4.651-1,9.349-3.739,13.136-.353.417-1.053,1.311-1.382,1.752a18.491,18.491,0,0,0-2.452,5.321,44.155,44.155,0,0,0-1.676,12.23h-13.882c.265-1.334.87-4.01,2.246-9.225"/>
            <path id="Path_74" data-name="Path 74" d="M1163.177,291.8a2.052,2.052,0,1,1,.152,3.229,2.321,2.321,0,0,1-.152-3.229" fill="#8dfec6"/>
            <path id="Path_75" data-name="Path 75" d="M1167.817,287.029a.994.994,0,1,1,.074,1.564,1.123,1.123,0,0,1-.074-1.564" fill="#8dfec6"/>
            <path id="Path_76" data-name="Path 76" d="M1128.075,265.683a.994.994,0,1,1-1.536-.306,1.124,1.124,0,0,1,1.536.306" fill="#8dfec6"/>
            <path id="Path_77" data-name="Path 77" d="M1125.837,298.375c1.388-1.957,3.755-2.662,5.286-1.576s1.647,3.553.259,5.51-3.754,2.662-5.286,1.575-1.647-3.552-.259-5.509" fill="#8dfec6"/>
            <path id="Path_78" data-name="Path 78" d="M1105.914,300.7a2.026,2.026,0,1,1,.15,3.188,2.291,2.291,0,0,1-.15-3.188" fill="#8dfec6"/>
            <path id="Path_79" data-name="Path 79" d="M1109.262,296.657a.9.9,0,1,1,.067,1.417,1.018,1.018,0,0,1-.067-1.417" fill="#8dfec6"/>
            <path id="Path_80" data-name="Path 80" d="M1128.769,273.575c-1.232-1.838-1.065-4.111.374-5.075s3.6-.256,4.836,1.583,1.065,4.11-.374,5.075-3.6.255-4.836-1.583" fill="#8dfec6"/>
            <path id="Path_81" data-name="Path 81" d="M1129.483,291.493a1.7,1.7,0,1,1,.126,2.669,1.917,1.917,0,0,1-.126-2.669" fill="#8dfec6"/>
            <path id="Path_82" data-name="Path 82" d="M1151.546,266.005a1.7,1.7,0,1,1,.126,2.67,1.919,1.919,0,0,1-.126-2.67" fill="#8dfec6"/>
            <path id="Path_83" data-name="Path 83" d="M1149.684,302.679a1.247,1.247,0,1,1,.092,1.962,1.409,1.409,0,0,1-.092-1.962" fill="#8dfec6"/>
            <path id="Path_84" data-name="Path 84" d="M1146.319,303.624a.8.8,0,1,1,.061,1.266.909.909,0,0,1-.061-1.266" fill="#8dfec6"/>
            <path id="Path_85" data-name="Path 85" d="M1221.735,185.182v-1.465c0-.835.828-4.878,3.149-13.7,2.036-7.749,5.933-13.4,10.452-19.936,2.534-3.67,5.4-7.83,8.3-12.884,7.478-13.044-1-25-1.362-25.5l-4.856-6.7L1254,116.16c8.32,5.61,16.069,18.237,18.566,22.565a25.188,25.188,0,0,1,3.23-1.977c8.254-4.131,9.727-19.351,9.741-19.5l.191-2.132,1.926.952c.5.257,3.179,1.978,6.313,11.184,3.545,10.393,3.069,20.222-1.333,27.685-2.219,3.758-2.028,11.939-1.281,18.9.9-4.578,2.248-9.433,4.123-11.418.63-.667,1.414-1.429,2.249-2.242,3.786-3.684,9.506-9.257,9.975-14.867.659-7.954,7.654-13.975,7.954-14.231l6.006-5.09-3.772,6.914s-.923,1.992.139,6.4a28.587,28.587,0,0,0,2.4,5.317c2.856,5.486,6.775,12.993,4.409,20.881a28.562,28.562,0,0,0,.315,17.673l.842,2.036-32.819-.051v.022Z" fill="#49e4ab"/>
            <path id="Path_86" data-name="Path 86" d="M1293.167,185.182v-.022l32.819.051-.842-2.036a28.566,28.566,0,0,1-.316-17.673c2.366-7.888-1.552-15.4-4.408-20.881a28.624,28.624,0,0,1-2.4-5.317c-1.062-4.409-.14-6.4-.14-6.4l3.772-6.914-6.006,5.09c-.3.256-7.3,6.277-7.953,14.231-.469,5.61-6.189,11.184-9.975,14.868-.836.813-1.619,1.574-2.249,2.241-1.875,1.985-3.223,6.841-4.124,11.418-.746-6.965-.938-15.146,1.283-18.9,4.4-7.464,4.877-17.293,1.332-27.686-3.134-9.206-5.815-10.927-6.314-11.183l-1.926-.953-.189,2.132c-.015.154-1.488,15.373-9.743,19.5a25.323,25.323,0,0,0-3.23,1.977c-2.5-4.328-10.245-16.955-18.565-22.565l-16.576-11.169,4.857,6.7c.367.5,8.841,12.458,1.362,25.5-2.9,5.053-5.771,9.213-8.306,12.883-4.518,6.54-8.414,12.187-10.45,19.936-2.322,8.825-3.151,12.868-3.151,13.7v1.465Zm4.438-20.749c.587-.623,1.318-1.333,2.161-2.153,4.1-3.992,10.291-10.02,10.847-16.729a17.728,17.728,0,0,1,4.007-9.081,20.788,20.788,0,0,0,.556,3.515,29.448,29.448,0,0,0,2.643,5.991c2.776,5.318,6.227,11.938,4.205,18.684a32.157,32.157,0,0,0-.257,17.614l-12.435-.021c.468-5.127,1.17-10.481,3.083-15.2a18.318,18.318,0,0,1,2.021-3.625c2.673-3.89,2.914-9.617.3-13.447a14.25,14.25,0,0,1-2.585,11.843c-4.556,5.705-5.778,13.278-5.881,20.427l-13.265-.022c.747-6.307,2.476-15.557,4.6-17.8m-20.5-25.063c7.15-3.582,9.889-13.352,10.863-18.545a38.371,38.371,0,0,1,3.222,7.368c3.267,9.573,2.879,18.538-1.076,25.254-4.021,6.8-1.494,23.334-.514,28.806h-17.13c-.323-1.209-.594-2.505-.8-3.765-1.047-6.328-.265-13.022,3.383-18.4.675-1.084,2.008-3.252,2.666-4.343,1.788-2.893,3.487-5.83,5.369-8.7a29.678,29.678,0,0,0-3.808,3.508,85.115,85.115,0,0,0-6.571,7.939,24.036,24.036,0,0,0-2.789,4.622,26.619,26.619,0,0,0-.645,19.138H1250.87a64.245,64.245,0,0,1,2.374-14c2.4-8.2,15.146-24.521,23.86-28.879m-49.385,31.391c1.9-7.258,5.485-12.444,10.026-19.021,2.563-3.713,5.472-7.924,8.437-13.088,5.26-9.177,3.407-18.01,1.231-23.393l4.952,3.332c7.938,5.347,15.687,18.179,17.849,21.936-8.483,7.024-17.682,19.717-19.783,26.9a66,66,0,0,0-2.5,14.824h-2.724a60.855,60.855,0,0,1,2.813-16.875,17.018,17.018,0,0,1,2.365-4.4c4.169-5.325,5.15-12.722,3.348-19.131-.63,5.794-1.245,11.646-4.658,16.362-.44.52-1.311,1.634-1.722,2.183a23.015,23.015,0,0,0-3.053,6.628,54.9,54.9,0,0,0-2.088,15.235h-17.292c.329-1.663,1.084-5,2.8-11.492"/>
            <path id="Path_87" data-name="Path 87" d="M1301.058,164.146c1.013-1.428,2.741-1.943,3.859-1.15s1.2,2.593.189,4.022-2.741,1.943-3.859,1.15-1.2-2.594-.189-4.022" fill="#8dfec6"/>
            <path id="Path_88" data-name="Path 88" d="M1306.837,158.21a1.238,1.238,0,1,1,.092,1.949,1.4,1.4,0,0,1-.092-1.949" fill="#8dfec6"/>
            <path id="Path_89" data-name="Path 89" d="M1257.333,131.621a1.238,1.238,0,1,1-1.913-.381,1.4,1.4,0,0,1,1.913.381" fill="#8dfec6"/>
            <path id="Path_90" data-name="Path 90" d="M1254.546,172.343c1.729-2.437,4.677-3.316,6.584-1.963s2.052,4.426.323,6.863-4.677,3.316-6.584,1.963-2.052-4.426-.323-6.863" fill="#8dfec6"/>
            <path id="Path_91" data-name="Path 91" d="M1229.729,175.235c1-1.41,2.706-1.919,3.81-1.136s1.187,2.561.186,3.971-2.706,1.919-3.809,1.136-1.187-2.561-.187-3.971" fill="#8dfec6"/>
            <path id="Path_92" data-name="Path 92" d="M1233.9,170.2a1.122,1.122,0,1,1,.083,1.766,1.269,1.269,0,0,1-.083-1.766" fill="#8dfec6"/>
            <path id="Path_93" data-name="Path 93" d="M1258.2,141.451c-1.535-2.29-1.326-5.12.466-6.322s4.489-.318,6.024,1.972,1.327,5.12-.466,6.321-4.489.319-6.024-1.971" fill="#8dfec6"/>
            <path id="Path_94" data-name="Path 94" d="M1259.088,163.77a2.113,2.113,0,1,1,.156,3.325,2.388,2.388,0,0,1-.156-3.325" fill="#8dfec6"/>
            <path id="Path_95" data-name="Path 95" d="M1286.569,132.021a2.114,2.114,0,1,1,.156,3.326,2.39,2.39,0,0,1-.156-3.326" fill="#8dfec6"/>
            <path id="Path_96" data-name="Path 96" d="M1284.25,177.7a1.553,1.553,0,1,1,.115,2.444,1.755,1.755,0,0,1-.115-2.444" fill="#8dfec6"/>
            <path id="Path_97" data-name="Path 97" d="M1280.059,178.881a1,1,0,1,1,.074,1.577,1.133,1.133,0,0,1-.074-1.577" fill="#8dfec6"/>
            <path id="Path_98" data-name="Path 98" d="M132.827,305.991l0-.943a72.037,72.037,0,0,1,2.051-8.815c1.324-4.984,3.842-8.612,6.763-12.814,1.637-2.357,3.492-5.03,5.368-8.278,4.837-8.383-.6-16.092-.832-16.418l-3.113-4.322,10.649,7.219c5.345,3.625,10.311,11.767,11.911,14.557a16.226,16.226,0,0,1,2.082-1.267c5.321-2.644,6.295-12.438,6.305-12.537L174.14,261l1.238.617c.32.166,2.043,1.278,4.044,7.21,2.264,6.7,1.94,13.021-.906,17.818-1.437,2.414-1.327,7.68-.859,12.165.588-2.945,1.464-6.068,2.675-7.342.406-.428.911-.917,1.451-1.439,2.444-2.365,6.135-5.942,6.447-9.552.438-5.119,4.951-8.982,5.145-9.146l3.875-3.266-2.44,4.443s-.6,1.281.078,4.121a18.308,18.308,0,0,0,1.532,3.427c1.829,3.536,4.338,8.375,2.8,13.448a18.375,18.375,0,0,0,.172,11.377l.538,1.312-21.125-.091v.014Z" fill="#49e4ab"/>
            <path id="Path_99" data-name="Path 99" d="M178.806,306.117V306.1l21.125.091-.538-1.312a18.384,18.384,0,0,1-.172-11.377c1.537-5.073-.972-9.912-2.8-13.448a18.375,18.375,0,0,1-1.532-3.427c-.676-2.84-.079-4.121-.079-4.121l2.441-4.443-3.875,3.266c-.194.164-4.707,4.027-5.145,9.146-.312,3.61-4,7.187-6.447,9.552-.539.522-1.045,1.011-1.452,1.439-1.21,1.274-2.086,4.4-2.674,7.342-.469-4.484-.577-9.751.858-12.165,2.847-4.8,3.171-11.122.907-17.818-2-5.932-3.724-7.044-4.044-7.21L174.14,261l-.126,1.372c-.01.1-.984,9.893-6.305,12.537a16.226,16.226,0,0,0-2.082,1.267c-1.6-2.79-6.566-10.931-11.912-14.557L143.067,254.4l3.113,4.322c.235.326,5.669,8.035.832,16.418-1.876,3.248-3.731,5.921-5.369,8.278-2.92,4.2-5.438,7.83-6.762,12.814a72.412,72.412,0,0,0-2.052,8.815l0,.943Zm2.894-13.348c.378-.4.851-.856,1.394-1.382,2.647-2.562,6.642-6.431,7.012-10.749a11.411,11.411,0,0,1,2.6-5.838,13.362,13.362,0,0,0,.352,2.263,18.929,18.929,0,0,0,1.691,3.861c1.777,3.428,3.986,7.7,2.673,12.034a20.691,20.691,0,0,0-.2,11.338l-8-.036a34.683,34.683,0,0,1,2.012-9.777,11.836,11.836,0,0,1,1.307-2.33,7.981,7.981,0,0,0,.217-8.655,9.171,9.171,0,0,1-1.685,7.618c-2.942,3.665-3.743,8.537-3.822,13.138l-8.537-.037c.492-4.058,1.621-10.009,2.992-11.448M168.548,276.6c4.608-2.292,6.388-8.577,7.024-11.917a24.565,24.565,0,0,1,2.062,4.748c2.086,6.167,1.82,11.937-.738,16.253-2.6,4.373-1,15.018-.381,18.541l-11.026-.03c-.206-.779-.378-1.614-.508-2.425a16.255,16.255,0,0,1,2.211-11.836c.435-.7,1.3-2.09,1.724-2.791,1.155-1.859,2.254-3.747,3.47-5.592a19.233,19.233,0,0,0-2.457,2.252,54.674,54.674,0,0,0-4.243,5.1,15.5,15.5,0,0,0-1.8,2.97,17.134,17.134,0,0,0-.449,12.317l-11.847-.032a41.339,41.339,0,0,1,1.552-9.01c1.561-5.276,9.793-15.757,15.41-18.547M136.7,296.719c1.239-4.669,3.553-8,6.488-12.226,1.656-2.385,3.535-5.091,5.454-8.409a16.911,16.911,0,0,0,.833-15.056l3.181,2.154c5.1,3.455,10.066,11.729,11.45,14.151-5.471,4.506-11.415,12.66-12.781,17.281a42.506,42.506,0,0,0-1.634,9.537l-1.753,0a39.119,39.119,0,0,1,1.84-10.857,10.972,10.972,0,0,1,1.53-2.829,14.071,14.071,0,0,0,2.188-12.309c-.415,3.728-.822,7.494-3.027,10.524-.284.334-.847,1.049-1.112,1.4a14.814,14.814,0,0,0-1.977,4.261,35.423,35.423,0,0,0-1.371,9.8l-11.13-.03c.215-1.07.706-3.213,1.821-7.392"/>
            <path id="Path_100" data-name="Path 100" d="M183.922,292.59a1.646,1.646,0,1,1,.115,2.589,1.861,1.861,0,0,1-.115-2.589" fill="#8dfec6"/>
            <path id="Path_101" data-name="Path 101" d="M187.653,288.78a.8.8,0,1,1,.056,1.254.9.9,0,0,1-.056-1.254" fill="#8dfec6"/>
            <path id="Path_102" data-name="Path 102" d="M155.835,271.578a.8.8,0,1,1-1.231-.249.9.9,0,0,1,1.231.249" fill="#8dfec6"/>
            <path id="Path_103" data-name="Path 103" d="M153.969,297.785c1.117-1.566,3.016-2.126,4.241-1.252s1.313,2.852.2,4.418-3.016,2.126-4.241,1.252-1.313-2.852-.2-4.418" fill="#8dfec6"/>
            <path id="Path_104" data-name="Path 104" d="M137.99,299.6a1.624,1.624,0,1,1,.113,2.556,1.836,1.836,0,0,1-.113-2.556" fill="#8dfec6"/>
            <path id="Path_105" data-name="Path 105" d="M140.683,296.37a.723.723,0,1,1,.05,1.137.816.816,0,0,1-.05-1.137" fill="#8dfec6"/>
            <path id="Path_106" data-name="Path 106" d="M156.374,277.907c-.984-1.477-.845-3.3.311-4.068s2.89-.2,3.874,1.279.845,3.3-.311,4.069-2.89.2-3.874-1.28" fill="#8dfec6"/>
            <path id="Path_107" data-name="Path 107" d="M156.908,292.275a1.36,1.36,0,1,1,.1,2.14,1.537,1.537,0,0,1-.1-2.14" fill="#8dfec6"/>
            <path id="Path_108" data-name="Path 108" d="M174.653,271.887a1.361,1.361,0,1,1,.1,2.141,1.539,1.539,0,0,1-.1-2.141" fill="#8dfec6"/>
            <path id="Path_109" data-name="Path 109" d="M173.079,301.288a1,1,0,1,1,.071,1.573,1.131,1.131,0,0,1-.071-1.573" fill="#8dfec6"/>
            <path id="Path_110" data-name="Path 110" d="M170.38,302.038a.645.645,0,1,1,.045,1.015.73.73,0,0,1-.045-1.015" fill="#8dfec6"/>
            <path id="Path_111" data-name="Path 111" d="M12.4,312.553a3,3,0,0,1-3-3V3a3,3,0,0,1,3-3H1330.336a3,3,0,0,1,3,3V309.553a3,3,0,0,1-3,3ZM1322.336,11H20.4V301.553H1322.336Z"/>
            <path id="Path_112" data-name="Path 112" d="M1330.336,309.553H12.4V3H1330.336Zm-1312.939-5H1325.336V8H17.4Z" fill="#fff"/>
            <path id="Path_113" data-name="Path 113" d="M20.394,277.144l-.625-1.288c-.356-.734-1.351-4.642-3.073-13.393-1.513-7.683-.494-14.309.691-21.988.664-4.307,1.415-9.189,1.811-14.87,1.014-14.659-11.534-21.557-12.071-21.845L0,199.937l19.337,2.755c9.708,1.386,21.906,9.186,25.948,11.928a24.4,24.4,0,0,1,2-3.116c5.5-7.152.3-21.163.25-21.3l-.741-1.955,2.1.016c.547.013,3.638.384,10.32,7.143,7.548,7.628,11.32,16.474,10.631,24.914-.349,4.25,3.306,11.363,6.933,17.169-1.16-4.409-2.045-9.254-1.242-11.8.269-.854.634-1.858,1.021-2.929,1.76-4.854,4.413-12.194,2.434-17.328-2.812-7.275.772-15.551.927-15.9l3.111-7.037-.369,7.688s.037,2.146,2.851,5.57a27.917,27.917,0,0,0,4.373,3.655c4.851,3.606,11.5,8.537,12.78,16.482a27.919,27.919,0,0,0,7.812,15.407l1.609,1.431L83.2,246.669l.009.019Z" fill="#49e4ab"/>
            <path id="Path_114" data-name="Path 114" d="M83.21,246.689l-.01-.019,28.883-13.948-1.609-1.431a27.912,27.912,0,0,1-7.812-15.407c-1.283-7.945-7.929-12.876-12.78-16.482a27.869,27.869,0,0,1-4.373-3.655c-2.814-3.425-2.852-5.57-2.852-5.57l.369-7.688-3.111,7.037c-.155.353-3.739,8.63-.927,15.9,1.98,5.134-.674,12.474-2.433,17.328-.388,1.071-.752,2.075-1.022,2.929-.8,2.545.083,7.39,1.243,11.8-3.627-5.806-7.283-12.919-6.933-17.169.689-8.44-3.083-17.286-10.632-24.914-6.681-6.76-9.772-7.13-10.32-7.143l-2.1-.016.742,1.955c.052.142,5.247,14.153-.251,21.305a24.617,24.617,0,0,0-2,3.116c-4.042-2.742-16.239-10.542-25.948-11.928L0,199.938l7.128,3.823c.537.288,13.085,7.186,12.071,21.845-.4,5.681-1.147,10.563-1.811,14.87-1.186,7.678-2.2,14.305-.691,21.988,1.721,8.75,2.717,12.658,3.073,13.393l.625,1.288Zm-4.944-20.138c.25-.8.591-1.735.982-2.815,1.9-5.259,4.777-13.2,2.407-19.335a17.345,17.345,0,0,1-.35-9.7,20.418,20.418,0,0,0,1.989,2.855,28.763,28.763,0,0,0,4.879,4.141c4.708,3.492,10.565,7.844,11.663,14.637a31.419,31.419,0,0,0,7.285,15.6l-10.946,5.283c-1.774-4.708-3.438-9.716-3.768-14.679a17.983,17.983,0,0,1,.232-4.05c.693-4.559-1.537-9.7-5.469-11.953a13.932,13.932,0,0,1,2.776,11.517c-1.574,6.96.579,14.141,3.537,20.471L81.81,244.162c-2.032-5.863-4.456-14.735-3.544-17.611m-28.713-13.3c4.759-6.2,3-15.957,1.645-20.938a37.421,37.421,0,0,1,5.975,5.1c6.954,7.025,10.435,15.074,9.821,22.666-.635,7.7,8.634,21.157,11.83,25.55l-15.064,7.3c-.8-.926-1.59-1.95-2.308-2.97-3.619-5.119-5.783-11.339-4.868-17.622.13-1.24.378-3.715.493-4.956.338-3.306.58-6.613,1.011-9.94a29.165,29.165,0,0,0-1.854,4.709,83.331,83.331,0,0,0-2.392,9.782,23.571,23.571,0,0,0-.483,5.254,26.016,26.016,0,0,0,7.592,17.1l-16.185,7.848a62.755,62.755,0,0,1-3.884-13.327c-1.384-8.237,2.865-28.021,8.671-35.569M19.508,261.912c-1.42-7.195-.481-13.281.708-21,.671-4.359,1.432-9.3,1.839-15.107.712-10.312-4.684-17.289-8.892-21.1l5.775.82c9.261,1.316,21.546,9.3,25.048,11.679C39.522,227,36.845,242.084,38.06,249.3a64.441,64.441,0,0,0,4.124,14.1l-2.4,1.161a59.484,59.484,0,0,1-4.722-16.038,16.633,16.633,0,0,1,.2-4.879c1.394-6.459-.9-13.383-5.213-18.25,1.916,5.363,3.87,10.771,2.88,16.374-.165.645-.457,1.995-.584,2.653a22.482,22.482,0,0,0,.141,7.131,53.732,53.732,0,0,0,4.659,14.287L21.947,273.21c-.419-1.6-1.176-4.855-2.439-11.3"/>
            <path id="Path_115" data-name="Path 115" d="M81.18,224.826c.282-1.688,1.582-2.878,2.9-2.657s2.163,1.768,1.881,3.456-1.582,2.878-2.9,2.657-2.163-1.768-1.881-3.456" fill="#8dfec6"/>
            <path id="Path_116" data-name="Path 116" d="M83.731,217.142a1.21,1.21,0,1,1,.911,1.674,1.368,1.368,0,0,1-.911-1.674" fill="#8dfec6"/>
            <path id="Path_117" data-name="Path 117" d="M28.863,214.867a1.211,1.211,0,1,1-1.845.48,1.369,1.369,0,0,1,1.845-.48" fill="#8dfec6"/>
            <path id="Path_118" data-name="Path 118" d="M43.774,251.865c.481-2.88,2.7-4.91,4.953-4.533s3.691,3.017,3.21,5.9-2.7,4.91-4.953,4.533-3.691-3.017-3.21-5.9" fill="#8dfec6"/>
            <path id="Path_119" data-name="Path 119" d="M23.183,264.989c.278-1.667,1.562-2.841,2.866-2.623s2.136,1.746,1.857,3.412-1.561,2.841-2.866,2.623-2.135-1.745-1.857-3.412" fill="#8dfec6"/>
            <path id="Path_120" data-name="Path 120" d="M24.7,258.785a1.24,1.24,0,0,1,1.274-1.166,1.4,1.4,0,0,1-.448,2.683,1.24,1.24,0,0,1-.826-1.517" fill="#8dfec6"/>
            <path id="Path_121" data-name="Path 121" d="M33.814,223.142c-2.326-1.359-3.349-3.937-2.286-5.758s3.812-2.194,6.138-.834,3.35,3.937,2.286,5.757-3.812,2.194-6.138.835" fill="#8dfec6"/>
            <path id="Path_122" data-name="Path 122" d="M44.112,242.39a2.336,2.336,0,0,1,2.4-2.2,2.639,2.639,0,0,1-.846,5.053,2.336,2.336,0,0,1-1.555-2.857" fill="#8dfec6"/>
            <path id="Path_123" data-name="Path 123" d="M54.743,202.754a2.335,2.335,0,0,1,2.4-2.2,2.64,2.64,0,1,1-2.4,2.2" fill="#8dfec6"/>
            <path id="Path_124" data-name="Path 124" d="M72.18,243.915a1.518,1.518,0,1,1,1.143,2.1,1.716,1.716,0,0,1-1.143-2.1" fill="#8dfec6"/>
            <path id="Path_125" data-name="Path 125" d="M69,246.736a.979.979,0,1,1,.737,1.355A1.107,1.107,0,0,1,69,246.736" fill="#8dfec6"/>
            <path id="Path_126" data-name="Path 126" d="M233.065,70.207H361.478s12.015-30.592-7.134-36.135-40.927,13.606-40.927,13.606,6.383-15.917-22.153-8.334-25.908,17.685-25.908,17.685S252.59,49.18,241.7,54.812s-8.636,15.4-8.636,15.4" fill="#fff"/>
            <path id="Path_127" data-name="Path 127" d="M1093.776,47.033h-70.453S1021.5,28,1034.4,25.426s16.043,9.413,16.043,9.413,3.225-6.532,10.5-5.127c7.3,1.41,7.855,4.962,7.855,4.962s1.526-4.659,11.99-4.466c8.931.166,12.983,16.825,12.983,16.825" fill="#fff"/>
            <path id="Path_128" data-name="Path 128" d="M965.981,272.967H885.793s-2.071-21.66,12.612-24.593,18.258,10.714,18.258,10.714,3.671-7.435,11.953-5.835c8.308,1.6,8.942,5.647,8.942,5.647s1.736-5.3,13.647-5.082c10.164.188,14.776,19.149,14.776,19.149" fill="#fff"/>
            <path id="Path_129" data-name="Path 129" d="M1258.146,231.873c-2.593-2.678-7.641-4.457-14.659-5.245l5.82,18.377a25.3,25.3,0,0,0,7.273-2.56c2.306-1.3,3.546-2.816,3.67-4.514a7.425,7.425,0,0,0-2.1-6.058" fill="#fff"/>
            <path id="Path_130" data-name="Path 130" d="M1241.952,216.043c-11.145,2.04-16.5-3.487-16.723-3.723l-.058-.066a23.335,23.335,0,0,0-12.284-6.621,29.364,29.364,0,0,0-11.114-.11l-.1.015c-7.408.844-13.333,4.24-16.247,9.32-2.729,4.757-2.672,10.681.171,17.13,6.931,15.724,34.688,27.96,64.554,28.467,17.006.29,24.717-6.05,28.189-11.418a21.309,21.309,0,0,0,1.353-20.246c-5.495-11.712-27.807-14.567-37.739-12.748m16.36,29.485c-8.533,4.8-23.511,4.915-36.479,2.175a63.037,63.037,0,0,1-15.106-5.05c-8.185-4.149-12.928-8.869-14.1-14.017-1.274-5.63,2.086-10,3.344-11.64l.226-.259c5.836-5.364,10.232-2.549,14.89.439,4.15,2.654,9.31,5.956,17.693,5.579,16.166-.736,26.9,1.5,31.9,6.668a10.907,10.907,0,0,1,3.091,8.776c-.157,2.025-1.224,4.94-5.465,7.329" fill="#08e296"/>
            <path id="Path_131" data-name="Path 131" d="M1230.3,226.234l-3.952,18.705a70.765,70.765,0,0,0,19.431.639l-6.1-19.267c-2.872-.164-6.006-.2-9.379-.077" fill="#fff"/>
            <path id="Path_132" data-name="Path 132" d="M1218.053,224.756l-13.235,12.79q1.6.99,3.505,1.95a59.5,59.5,0,0,0,14.553,4.808l3.8-18.005a28.341,28.341,0,0,1-8.627-1.543" fill="#fff"/>
            <path id="Path_133" data-name="Path 133" d="M1294.757,192.082l-105.23-22.233a5.968,5.968,0,0,0-7.062,4.591l-18.936,89.627a5.962,5.962,0,0,0,4.6,7.055l105.229,22.233a5.963,5.963,0,0,0,7.063-4.591l18.936-89.627a5.968,5.968,0,0,0-4.6-7.055m-13.449,58.873a25.792,25.792,0,0,1-10.58,9.154c-1.736,3.56-10.822,19.907-30.207,17.851-1.243-.136-2.457-.329-3.632-.578-17.314-3.658-27.531-19.12-29.508-22.362-12.12-5.431-21.212-12.975-25.012-21.6-4.194-9.5-2.316-16.293,0-20.317,3.472-6.053,10.344-10.089,18.855-11.07,16.722-2.857,25.785,6.964,26.592,7.884.374.367,4.59,4.291,13.51,2.655,11.135-2.042,35.23,1.216,41.566,14.712a24.941,24.941,0,0,1-1.581,23.673" fill="#e4b446"/>
            <path id="Path_134" data-name="Path 134" d="M1330.654,186.3l-1.6,7.594a7.725,7.725,0,0,1-5.3,5.784l-20.968,99.243a7.735,7.735,0,0,1,3.351,8.064l-1.614,7.637a11.07,11.07,0,0,0,4.884-7.055l23.624-111.813a11.121,11.121,0,0,0-2.371-9.454" fill="#c90"/>
            <path id="Path_135" data-name="Path 135" d="M1313.911,190.794l.536-2.666-.553-.117a7.448,7.448,0,0,1-5.738-8.811l.016-.078-112.823-23.837,0-.009-9.643-2.037c-.006.034,0,.062-.01.088a7.447,7.447,0,0,1-8.819,5.736l-.544-.115-.6,2.653a7.755,7.755,0,0,1-9.129,5.87,7.317,7.317,0,0,1-1.119-.336l-20.683,97.886c.07.015.141.021.2.033a7.748,7.748,0,0,1,5.981,9.062l-.524,2.66.544.115a7.444,7.444,0,0,1,5.735,8.82,8.538,8.538,0,0,1-.257.92l124.462,26.3a6.809,6.809,0,0,1,.128-.947,7.449,7.449,0,0,1,8.813-5.747l.552.117.6-2.645a7.752,7.752,0,0,1,8.386-5.99l20.669-97.825c-.069-.015-.132-.019-.2-.034a7.761,7.761,0,0,1-5.982-9.062m-30.032,98.7a9.495,9.495,0,0,1-11.249,7.317L1167.4,274.578a9.494,9.494,0,0,1-7.328-11.241l18.937-89.627a9.5,9.5,0,0,1,11.248-7.317l105.23,22.233a9.5,9.5,0,0,1,7.327,11.241Z" fill="#fbd616"/>
            <path id="Path_136" data-name="Path 136" d="M1209.189,220.149c-4.6-2.949-6.725-4.309-10.485-.907-1.145,1.491-3.513,4.709-2.632,8.614.6,2.627,2.531,5.192,5.763,7.662l12.681-12.258a55.467,55.467,0,0,1-5.327-3.111" fill="#fff"/>
            <path id="Path_137" data-name="Path 137" d="M1330.637,181.513a9.207,9.207,0,0,0-6.982-6.638l-6.687-1.413a7.438,7.438,0,0,0-7.139,2.391L1185.523,149.59a7.453,7.453,0,0,0-5.57-5.076l-6.679-1.411a9.216,9.216,0,0,0-10.915,7.107l-1.712,8.1a7.716,7.716,0,0,0,1.7,6.622l-21.189,100.288a7.729,7.729,0,0,0-5.293,5.786l-1.714,8.113a9.222,9.222,0,0,0,7.107,10.915l6.679,1.411a7.415,7.415,0,0,0,6.4-1.663l127.312,26.9a7.4,7.4,0,0,0,5.171,4.106l6.687,1.413a9.214,9.214,0,0,0,8.651-2.757,14.666,14.666,0,0,0,10.7-11.15l23.624-111.813a14.674,14.674,0,0,0-5.844-14.971m-31.212,116.2a7.751,7.751,0,0,0-8.387,5.989l-.595,2.645-.553-.116a7.448,7.448,0,0,0-8.813,5.746,6.785,6.785,0,0,0-.128.948l-124.462-26.3a8.32,8.32,0,0,0,.258-.92,7.443,7.443,0,0,0-5.736-8.82l-.544-.115.526-2.66a7.75,7.75,0,0,0-5.983-9.062c-.06-.012-.131-.018-.2-.033l20.681-97.886a7.25,7.25,0,0,0,1.12.336,7.754,7.754,0,0,0,9.129-5.869l.6-2.654.545.115a7.448,7.448,0,0,0,8.82-5.736c.005-.026,0-.054.009-.088l9.642,2.037,0,.009,112.824,23.837-.016.078a7.446,7.446,0,0,0,5.738,8.811l.553.117-.537,2.667a7.76,7.76,0,0,0,5.983,9.061c.069.015.131.019.2.034Zm9.976,9.851a11.073,11.073,0,0,1-4.884,7.055l1.614-7.638a7.734,7.734,0,0,0-3.351-8.063l20.968-99.243a7.726,7.726,0,0,0,5.3-5.784l1.6-7.594a11.121,11.121,0,0,1,2.371,9.454Z"/>
            <path id="Path_138" data-name="Path 138" d="M1295.488,188.626l-105.23-22.233a9.5,9.5,0,0,0-11.248,7.317l-18.936,89.627a9.493,9.493,0,0,0,7.327,11.241l105.23,22.233a9.494,9.494,0,0,0,11.248-7.317l18.936-89.627a9.5,9.5,0,0,0-7.327-11.241m-15.065,100.138a5.962,5.962,0,0,1-7.062,4.591l-105.23-22.233a5.961,5.961,0,0,1-4.6-7.055l18.936-89.627a5.968,5.968,0,0,1,7.062-4.591l105.23,22.233a5.967,5.967,0,0,1,4.6,7.055Z"/>
            <path id="Path_139" data-name="Path 139" d="M1241.323,212.57c-8.92,1.636-13.136-2.288-13.51-2.655-.807-.92-9.869-10.741-26.592-7.884-8.511.982-15.383,5.017-18.855,11.07-2.312,4.024-4.19,10.821,0,20.317,3.8,8.628,12.892,16.171,25.012,21.6,1.977,3.243,12.194,18.7,29.508,22.362,1.175.249,2.389.442,3.632.578,19.385,2.056,28.471-14.291,30.207-17.85a25.794,25.794,0,0,0,10.58-9.155,24.941,24.941,0,0,0,1.581-23.673c-6.336-13.5-30.431-16.754-41.566-14.712m37.015,36.467c-3.472,5.368-11.183,11.708-28.188,11.418-29.866-.507-57.624-12.743-64.554-28.467-2.843-6.449-2.9-12.373-.172-17.13,2.915-5.08,8.84-8.476,16.247-9.32l.1-.015a29.365,29.365,0,0,1,11.114.11,23.329,23.329,0,0,1,12.283,6.621l.058.066c.221.236,5.579,5.763,16.723,3.723,9.933-1.819,32.245,1.036,37.74,12.748a21.309,21.309,0,0,1-1.354,20.246"/>
            <path id="Path_140" data-name="Path 140" d="M1260.686,229.422c-5-5.163-15.737-7.4-31.9-6.668-8.383.377-13.543-2.924-17.693-5.579-4.658-2.988-9.054-5.8-14.889-.438l-.227.259c-1.257,1.638-4.618,6.01-3.343,11.64,1.168,5.147,5.911,9.868,14.1,14.016a63.065,63.065,0,0,0,15.106,5.051c12.968,2.74,27.946,2.628,36.479-2.176,4.242-2.389,5.309-5.3,5.466-7.329a10.907,10.907,0,0,0-3.092-8.776m-64.614-1.566c-.881-3.9,1.487-7.123,2.632-8.614,3.76-3.4,5.882-2.042,10.485.907a55.467,55.467,0,0,0,5.327,3.111l-12.68,12.257c-3.233-2.47-5.164-5.035-5.764-7.661m26.8,16.448a59.5,59.5,0,0,1-14.553-4.808c-1.264-.637-2.435-1.29-3.505-1.949l13.235-12.791a28.341,28.341,0,0,0,8.627,1.543Zm3.476.635,3.952-18.705c3.373-.117,6.507-.087,9.379.078l6.1,19.267a70.734,70.734,0,0,1-19.432-.64m30.229-2.494a25.3,25.3,0,0,1-7.274,2.561l-5.819-18.378c7.017.788,12.066,2.568,14.659,5.245a7.429,7.429,0,0,1,2.1,6.059c-.124,1.7-1.365,3.213-3.67,4.513"/>
            <path id="Path_141" data-name="Path 141" d="M322.275,218.736a3,3,0,0,1-3-3,20.263,20.263,0,0,0-20.24-20.239,3,3,0,0,1,0-6,20.263,20.263,0,0,0,20.24-20.239,3,3,0,0,1,6,0A20.262,20.262,0,0,0,345.514,189.5a3,3,0,0,1,0,6,20.262,20.262,0,0,0-20.239,20.239,3,3,0,0,1-3,3"/>
            <path id="Path_142" data-name="Path 142" d="M322.275,215.736h0A23.239,23.239,0,0,0,299.036,192.5a23.24,23.24,0,0,0,23.239-23.239A23.24,23.24,0,0,0,345.514,192.5a23.239,23.239,0,0,0-23.239,23.239" fill="#fff"/>
            <path id="Path_143" data-name="Path 143" d="M1153.712,223.925a3,3,0,0,1-3-3,13.4,13.4,0,0,0-13.385-13.384,3,3,0,0,1,0-6,13.4,13.4,0,0,0,13.385-13.385,3,3,0,0,1,6,0,13.4,13.4,0,0,0,13.384,13.385,3,3,0,0,1,0,6,13.4,13.4,0,0,0-13.384,13.384,3,3,0,0,1-3,3"/>
            <path id="Path_144" data-name="Path 144" d="M1153.712,220.925h0a16.384,16.384,0,0,0-16.384-16.384,16.384,16.384,0,0,0,16.384-16.384,16.384,16.384,0,0,0,16.384,16.384,16.383,16.383,0,0,0-16.384,16.384" fill="#fff"/>
            <path id="Path_145" data-name="Path 145" d="M416.9,65.042a3,3,0,0,1-3-3,13.4,13.4,0,0,0-13.384-13.384,3,3,0,0,1,0-6A13.4,13.4,0,0,0,413.9,29.273a3,3,0,1,1,6,0,13.4,13.4,0,0,0,13.384,13.385,3,3,0,0,1,0,6A13.4,13.4,0,0,0,419.9,62.042a3,3,0,0,1-3,3"/>
            <path id="Path_146" data-name="Path 146" d="M416.9,62.041h0a16.384,16.384,0,0,0-16.384-16.384A16.384,16.384,0,0,0,416.9,29.273a16.384,16.384,0,0,0,16.384,16.384A16.384,16.384,0,0,0,416.9,62.041" fill="#fff"/>
            <path id="Path_147" data-name="Path 147" d="M191.941,137.992l20.088,3.624-12.44,9.865,10.286,17.068-15.26-2.838,12.676,24.059-19.372-19.616,4.147,29.684L174.677,185.55l-6.98,20.357-7.154-16.056L142.672,205.73l3.023-20.739-23.223,10.314,12.211-23.368-27.562,1.424,24.326-14.191-32.2-9.15,32.887-4.1-13.588-27.363L141.859,128.9l.814-26.2,15.471,22.238L170.025,102.7l7.661,28.006,21.6-11.807Z" fill="#4a86ff"/>
            <path id="Path_148" data-name="Path 148" d="M167.689,175.059a22.487,22.487,0,1,1,13.869-28.619,22.487,22.487,0,0,1-13.869,28.619" fill="#978e89"/>
            <path id="Path_149" data-name="Path 149" d="M215,90.843l13.219,14.395s6.836-.428,4.827-8-7-9.461-7.238-9.643-4.247-.736-4.247-.736Z" fill="#fbd616"/>
            <path id="Path_150" data-name="Path 150" d="M184.682,153.235c2.8-2.608,12.094-12.1,46.353-47.649A12.021,12.021,0,0,0,214.7,88l-50.8,42.175a24.151,24.151,0,1,0,20.787,23.06m-13.323,18.387a61.538,61.538,0,0,0-6.621-8.611l6.194-6.138a45.767,45.767,0,0,0,9.073,3.933,20.628,20.628,0,0,1-8.646,10.816M154.3,154.1l6.309-5.566a41.609,41.609,0,0,0,7.241,6.4l-5.59,5.536a57.12,57.12,0,0,0-7.96-6.371m5.432,8.876-9.2,9.114a20.565,20.565,0,0,1-7.858-7.735l8.854-7.811a53.865,53.865,0,0,1,8.2,6.432M169.8,135.693l-8.823,7.783a47.152,47.152,0,0,1-5.368-9.394,20.56,20.56,0,0,1,14.191,1.611m3.151,1.953a20.486,20.486,0,0,1,5.69,6.6l-8.246,8.17a37.3,37.3,0,0,1-7.157-6.2Zm7.931,19.719a43.108,43.108,0,0,1-7.353-3.062l6.614-6.552a20.48,20.48,0,0,1,.739,9.614m47.293-66.292a8.46,8.46,0,0,1,.353,12L216.6,91.035l.367-.3a8.484,8.484,0,0,1,11.208.342M152.242,135.23a50.191,50.191,0,0,0,6.093,10.575l-7.194,6.347a62.084,62.084,0,0,0-10.114-4.653,20.584,20.584,0,0,1,11.215-12.269m-12.066,15.731a58.808,58.808,0,0,1,8.144,3.679l-7.2,6.348c-.017-.047-.037-.094-.054-.142a20.478,20.478,0,0,1-.894-9.885m13.847,22.664,8.187-8.111a57.707,57.707,0,0,1,5.966,7.711c-.289.116-.582.228-.88.331a20.5,20.5,0,0,1-13.273.069"/>
            <path id="Path_151" data-name="Path 151" d="M212.536,104.362a2.881,2.881,0,1,1,1.777-3.667,2.883,2.883,0,0,1-1.777,3.667" fill="#fbd616"/>
            <path id="Path_152" data-name="Path 152" d="M206.889,105.28h0a2.408,2.408,0,0,1-.059,3.578l-25.555,22.28a2.408,2.408,0,0,1-3.337-.165l-.252-.268a2.408,2.408,0,0,1,.191-3.482l25.808-22.013a2.408,2.408,0,0,1,3.2.07" fill="#fbd616"/>
            <path id="Path_153" data-name="Path 153" d="M217.728,114.527a3,3,0,0,1,1.85-3.818,13.4,13.4,0,0,0,8.255-17.033,3,3,0,0,1,5.668-1.968,13.4,13.4,0,0,0,17.033,8.254,3,3,0,0,1,1.968,5.669,13.4,13.4,0,0,0-8.254,17.033,3,3,0,0,1-5.669,1.968,13.4,13.4,0,0,0-17.033-8.255,3,3,0,0,1-3.818-1.85"/>
            <path id="Path_154" data-name="Path 154" d="M220.562,113.543h0a16.385,16.385,0,0,0,10.105-20.851,16.383,16.383,0,0,0,20.851,10.1,16.386,16.386,0,0,0-10.105,20.852,16.383,16.383,0,0,0-20.851-10.105" fill="#fff"/>
            <path id="Path_155" data-name="Path 155" d="M1137.327,182.005a3,3,0,0,1-3-3,6.292,6.292,0,0,0-6.285-6.286,3,3,0,0,1,0-6,6.292,6.292,0,0,0,6.285-6.286,3,3,0,1,1,6,0,6.293,6.293,0,0,0,6.286,6.286,3,3,0,0,1,0,6,6.293,6.293,0,0,0-6.286,6.286,3,3,0,0,1-3,3"/>
            <path id="Path_156" data-name="Path 156" d="M1137.328,179.005h0a9.286,9.286,0,0,0-9.286-9.286,9.285,9.285,0,0,0,9.286-9.285,9.285,9.285,0,0,0,9.286,9.285,9.286,9.286,0,0,0-9.286,9.286" fill="#fff"/>
            <path id="Path_157" data-name="Path 157" d="M29.286,269.68l-16.858,7.26c-1.558,11.809,3.609,23.612,15.248,35.408l16.858-7.26A62.128,62.128,0,0,1,29.286,269.68" fill="#fff"/>
            <path id="Path_158" data-name="Path 158" d="M49.142,306.153l-22.116,9.524-1.344-1.362c-12.3-12.463-17.69-25.161-16.031-37.742L9.859,275l21.854-9.411.361,3.832a59.653,59.653,0,0,0,14.584,33.845Zm-20.795,2.856,11.671-5.026A64.737,64.737,0,0,1,26.962,273.73l-11.919,5.133c-.744,9.848,3.725,19.975,13.3,30.146"/>
            <path id="Path_159" data-name="Path 159" d="M85.707,216.457,29.286,269.68c.3,11.8,5.5,23.662,15.326,35.589l77.276-4.889a6.429,6.429,0,0,0,5.5-8.96L96.025,218.591a6.43,6.43,0,0,0-10.318-2.134" fill="#fff"/>
            <path id="Path_160" data-name="Path 160" d="M125.128,302.441a9.187,9.187,0,0,1-3.064.734l-78.7,4.98-.91-1.1c-10.285-12.482-15.656-25.033-15.965-37.3l-.031-1.25L83.785,214.42A9.23,9.23,0,0,1,98.6,217.484l31.362,72.828a9.225,9.225,0,0,1-4.831,12.129m-79.252-.058,75.834-4.8a3.63,3.63,0,0,0,3.105-5.057L93.452,219.7a3.627,3.627,0,0,0-5.823-1.205L32.136,270.842c.581,10.253,5.2,20.852,13.74,31.541"/>
            <path id="Path_161" data-name="Path 161" d="M133.738,245.485c10.661,24.757,9.434,49.076-2.74,54.318s-30.686-10.576-41.347-35.333-9.434-49.075,2.74-54.318,30.686,10.576,41.347,35.333" fill="#fff"/>
            <path id="Path_162" data-name="Path 162" d="M132.1,302.375c-13.8,5.944-33.582-10.219-45.027-36.8s-9.6-52.055,4.2-58,33.582,10.219,45.028,36.8,9.6,52.054-4.205,58M93.5,212.724c-9.4,4.049-12.16,25.364-1.275,50.639s28.263,37.917,37.666,33.867,12.16-25.363,1.276-50.637S102.9,208.675,93.5,212.724"/>
            <path id="Path_163" data-name="Path 163" d="M126.162,248.747c8.346,19.381,8.635,37.882.644,41.323s-21.233-9.481-29.58-28.862-8.634-37.882-.644-41.323,21.234,9.481,29.58,28.862"/>
            <path id="Path_164" data-name="Path 164" d="M98.836,255.659l3.6,8.355a4.5,4.5,0,0,0,7.127,1.583l8.3-6.244-4.952-11.5L102.7,249.384a4.5,4.5,0,0,0-3.866,6.275" fill="#978e89"/>
            <path id="Path_165" data-name="Path 165" d="M109.463,268.937a7.3,7.3,0,0,1-9.6-3.815l-3.6-8.354a7.3,7.3,0,0,1,6.131-10.169l12.234-1.836,6.677,15.505-9.981,7.508a7.276,7.276,0,0,1-1.862,1.161m-7.168-16.622a1.73,1.73,0,0,0-.773.672,1.692,1.692,0,0,0-.114,1.565l3.6,8.355a1.7,1.7,0,0,0,2.694.6l.177-.145,6.542-4.921-3.228-7.5-8.322,1.238a1.724,1.724,0,0,0-.574.134"/>
            <path id="Path_166" data-name="Path 166" d="M1106.185,232.721a3.207,3.207,0,0,1,.337.457,3.022,3.022,0,0,1-.375,3.619c-1.552,1.658-3.309.824-5.17-.058-1.057-.5-2.549-1.235-4.332-2.126-3.122-1.56-7.45-3.758-12.863-6.532-4.575-2.345-9.14-4.7-12.6-6.489l1.812,6.936a3,3,0,0,1-4.526,3.282l-39.175-25.2a3,3,0,0,1,2.621-5.352l22.226,7.845-2.493-10.628a3,3,0,0,1,4.7-3.1C1088.588,219.225,1105.356,231.788,1106.185,232.721Z"/>
            <path id="Path_167" data-name="Path 167" d="M1030.914,204.089l39.175,25.2-3.514-13.458s37.827,19.639,37.381,18.9-49.39-36.938-49.39-36.938l3.746,15.967Z" fill="#fbd616"/>
            <path id="Path_168" data-name="Path 168" d="M1097.2,258.292a3.877,3.877,0,0,1,.61.309,3.637,3.637,0,0,1,1.555,4.091c-.771,2.621-3.11,2.676-5.586,2.735-1.407.033-3.407.052-5.8.06-4.2.014-10.038-.006-17.355-.057-6.184-.044-12.363-.1-17.05-.153l5.7,6.472a3.609,3.609,0,0,1-3.086,5.974l-55.723-5.871a3.609,3.609,0,0,1-.08-7.169l28.123-3.6-8.428-10.069a3.608,3.608,0,0,1,3.378-5.873c47.538,8.173,72.35,12.6,73.745,13.15Z"/>
            <path id="Path_169" data-name="Path 169" d="M1000.84,268.263l55.722,5.872L1045.5,261.578s51.267.63,50.389.08-73.05-12.959-73.05-12.959l12.664,15.128Z" fill="#fbd616"/>
            <path id="Path_170" data-name="Path 170" d="M116.488,238.265s35.522-29.791,90.522-31.914,107.529,34.824,180.376,30.622,128.8-67.716,128.8-67.716l73.584,85.81s-138.7,53.634-219.56,35.564-99.566-54.584-157.741-53.74c-58.447.847-87.353,27.043-87.353,27.043Z" fill="#fbd616"/>
            <path id="Path_171" data-name="Path 171" d="M116.488,238.265s35.522-29.791,90.522-31.914,107.529,34.824,180.376,30.622,128.8-67.716,128.8-67.716l73.584,85.81s-138.7,53.634-219.56,35.564-99.566-54.584-157.741-53.74c-58.447.847-87.353,27.043-87.353,27.043Z" fill="none" stroke="#000" stroke-width="4"/>
            <path id="Path_172" data-name="Path 172" d="M120.03,246.4s59.028-38.38,114.369-27.661,94.369,47.832,182.5,36.348C502.176,243.973,543.317,200.9,543.317,200.9" fill="none" stroke="#000" stroke-width="4"/>
            <path id="Path_173" data-name="Path 173" d="M120.03,255.87s52.988-35.465,108.815-27.661c54.862,7.67,114.69,56.4,202.823,44.917,85.276-11.111,123.861-48.22,123.861-48.22" fill="none" stroke="#000" stroke-width="4"/>
            <path id="Path_174" data-name="Path 174" d="M691.025,61.654,650.7,63.747a3.1,3.1,0,0,0-2.509,1.579,3.17,3.17,0,0,0-.947,1.05,3.175,3.175,0,0,0-.947,1.051,3.113,3.113,0,0,0-.886.932l-.176-3.394a3,3,0,0,0-3.151-2.84,35.77,35.77,0,0,1-7.155-.6,38.939,38.939,0,0,0-7.742-.7,5.184,5.184,0,0,0-4.209,2.247,4.724,4.724,0,0,0-.947,1.05,4.749,4.749,0,0,0-.947,1.051,4.748,4.748,0,0,0-.947,1.05,4.777,4.777,0,0,0-.947,1.051,4.745,4.745,0,0,0-.946,1.05,4.749,4.749,0,0,0-.947,1.051,4.722,4.722,0,0,0-.947,1.05,4.751,4.751,0,0,0-.947,1.051,4.747,4.747,0,0,0-.947,1.05,4.751,4.751,0,0,0-.947,1.051,4.742,4.742,0,0,0-.946,1.05,4.727,4.727,0,0,0-.947,1.051,4.724,4.724,0,0,0-.947,1.05,4.727,4.727,0,0,0-.947,1.051,4.724,4.724,0,0,0-.947,1.05c-.034.028-.069.053-.1.082-2.1-5.047-3.6-8.8-4.581-11.3a3,3,0,0,0-1.78-1.728,34.927,34.927,0,0,0-13.671-1.852l-4.386.228a3,3,0,0,0-2.071.985c-.191.212-.355.443-.526.668a2.993,2.993,0,0,0-.421.383c-.191.211-.355.442-.526.667a3.048,3.048,0,0,0-.421.383c-.191.212-.354.443-.526.668a3.106,3.106,0,0,0-.421.383c-.191.211-.354.442-.525.667a3.053,3.053,0,0,0-.422.383c-.19.212-.354.442-.525.668a2.93,2.93,0,0,0-.421.383c-.191.211-.355.442-.526.667a2.99,2.99,0,0,0-.421.383c-.112.124-.2.262-.307.39-.445-2.914-1.7-4.827-3.757-5.663a2.989,2.989,0,0,0-1.282-.215l-8.1.42q-.361.012-.71.03c-4.343.225-7.514,1.288-9.7,3.248a2.985,2.985,0,0,0-.592.766c-.117.1-.243.184-.354.284a2.966,2.966,0,0,0-.593.766c-.117.1-.242.184-.354.284a2.963,2.963,0,0,0-.592.767c-.117.1-.243.184-.355.284a2.943,2.943,0,0,0-.592.766c-.117.1-.243.184-.355.284a2.986,2.986,0,0,0-.592.767c-.117.1-.243.184-.355.284a2.962,2.962,0,0,0-.592.766c-.117.1-.243.184-.355.284a3.007,3.007,0,0,0-.592.767c-.117.1-.243.183-.354.284a2.968,2.968,0,0,0-.593.766c-.117.1-.242.184-.354.284a2.989,2.989,0,0,0-.593.767c-.117.1-.242.183-.354.284a2.94,2.94,0,0,0-.592.766c-.117.1-.243.184-.355.284a2.985,2.985,0,0,0-.592.767c-.117.1-.243.183-.355.284a2.963,2.963,0,0,0-.592.766c-.117.1-.243.184-.355.284a3.007,3.007,0,0,0-.592.767c-.117.095-.243.183-.354.284a2.966,2.966,0,0,0-.593.766c-.117.1-.242.184-.354.284a2.989,2.989,0,0,0-.593.767c-.117.1-.242.183-.354.284a2.942,2.942,0,0,0-.592.766c-.117.1-.243.184-.355.284a2.986,2.986,0,0,0-.592.767c-.117.1-.243.183-.355.284a2.962,2.962,0,0,0-.592.766c-.117.1-.243.184-.355.284a3.007,3.007,0,0,0-.592.767c-.117.1-.243.183-.354.284a2.968,2.968,0,0,0-.593.766c-.117.1-.242.184-.354.284-.027.024-.045.055-.071.08-.329-8.831-.617-15.084-.834-19.276a3,3,0,0,0-3.152-2.841l-15.4.8c-.107,0-.213,0-.322.009-2.051.107-4.25,1.07-6.722,2.946a2.978,2.978,0,0,0-.793.94c-.052.038-.1.071-.154.111a2.975,2.975,0,0,0-.793.939c-.052.039-.1.072-.154.111a2.978,2.978,0,0,0-.793.94c-.052.038-.1.071-.154.111a2.961,2.961,0,0,0-.22.214l-.185-3.559a3,3,0,0,0-3.152-2.841,35.771,35.771,0,0,1-7.154-.6,38.939,38.939,0,0,0-7.742-.7,5.186,5.186,0,0,0-4.209,2.247,4.75,4.75,0,0,0-.947,1.051,4.723,4.723,0,0,0-.947,1.05,4.775,4.775,0,0,0-.947,1.051,4.743,4.743,0,0,0-.946,1.05,4.75,4.75,0,0,0-.947,1.051,4.724,4.724,0,0,0-.947,1.05,4.75,4.75,0,0,0-.947,1.051,4.723,4.723,0,0,0-.947,1.05,4.753,4.753,0,0,0-.947,1.051,4.743,4.743,0,0,0-.946,1.05,4.728,4.728,0,0,0-.947,1.051,4.724,4.724,0,0,0-.947,1.05,4.728,4.728,0,0,0-.947,1.051,4.723,4.723,0,0,0-.947,1.05,4.77,4.77,0,0,0-.947,1.05c-.033.028-.069.054-.1.083-2.1-5.048-3.6-8.8-4.581-11.3a3,3,0,0,0-1.78-1.729,34.928,34.928,0,0,0-13.671-1.851l-4.386.227a3,3,0,0,0-2.073.988c-.189.21-.352.439-.522.663a3.042,3.042,0,0,0-.425.387c-.189.211-.351.44-.521.663a3.006,3.006,0,0,0-.426.388c-.189.21-.351.439-.521.663a2.936,2.936,0,0,0-.425.387c-.19.21-.352.44-.522.663a2.942,2.942,0,0,0-.425.388c-.19.21-.352.439-.522.663a2.99,2.99,0,0,0-.425.387c-.19.21-.352.44-.522.663a3.051,3.051,0,0,0-.425.388c-.189.21-.352.439-.522.663a3.043,3.043,0,0,0-.425.387c-.189.21-.351.44-.521.663a3.005,3.005,0,0,0-.426.388c-.189.21-.351.439-.521.663a2.936,2.936,0,0,0-.425.387c-.19.21-.352.44-.522.663a2.943,2.943,0,0,0-.425.388c-.19.21-.352.439-.522.663a2.99,2.99,0,0,0-.425.387c-.19.21-.352.439-.522.663a3.051,3.051,0,0,0-.425.388c-.19.21-.352.439-.522.663-.077.058-.144.13-.216.2-.32-.538-.646-1.077-.994-1.623a22.008,22.008,0,0,0-6.347-6.642,26.329,26.329,0,0,0-8.646-3.56,35.664,35.664,0,0,0-9.924-.733c-.387.02-.78.045-1.258.082a32.609,32.609,0,0,0-14.818,5.058,29.413,29.413,0,0,0-6.153,5.409q-.487.514-.947,1.051c-.325.342-.639.693-.946,1.05q-.488.515-.947,1.051-.487.513-.947,1.05-.488.515-.947,1.051-.488.513-.947,1.05-.487.514-.947,1.051-.487.513-.946,1.05c-.326.342-.64.693-.947,1.051q-.487.513-.947,1.05-.488.513-.947,1.05-.488.514-.947,1.051-.487.513-.947,1.05-.487.515-.947,1.051c-.325.342-.639.693-.946,1.05q-.487.515-.947,1.051-.488.513-.947,1.05-.488.514-.947,1.051-.487.513-.947,1.05a28.56,28.56,0,0,0-4.611,6.438,64.124,64.124,0,0,0-7.087,29.246c0,4.972,0,9.86-.007,14.827a97.455,97.455,0,0,0,.871,13.475,9.253,9.253,0,0,0,.158.96c.025.128.054.271.085.433l.044.841c.442,5.35,1.617,14.6,3.809,29.985a3,3,0,0,0,.667,1.5l.123.147c2.19,8.075,6.333,14.137,12.321,18.026,5.7,3.705,12.566,5.378,20.4,4.972.513-.027,1.029-.062,1.529-.1a25.5,25.5,0,0,0,10.386-3.081,29.572,29.572,0,0,0,7.74-6.067c.189-.209.371-.431.554-.652.128-.135.269-.261.393-.4.188-.209.371-.431.554-.651.127-.136.269-.261.393-.4.188-.209.371-.431.554-.652.127-.135.268-.261.393-.4.188-.209.371-.431.554-.651.127-.136.268-.261.393-.4.188-.209.37-.431.553-.652.128-.135.269-.261.394-.4.188-.209.37-.43.553-.651.128-.136.269-.261.393-.4.189-.209.371-.431.554-.652.128-.135.269-.261.393-.4.188-.209.371-.43.554-.651.127-.136.269-.261.393-.4.188-.209.371-.431.554-.652.127-.135.268-.261.393-.4.188-.208.371-.43.554-.651.127-.136.268-.261.393-.4.188-.209.37-.431.553-.651.128-.136.269-.262.394-.4.188-.208.37-.43.553-.651.128-.136.269-.261.393-.4.189-.209.371-.431.554-.651.128-.136.269-.262.393-.4.188-.208.371-.43.554-.651.127-.136.269-.261.393-.4.188-.209.371-.431.554-.651.064-.068.134-.132.2-.2-.017,4.8.037,8.78.164,11.891a2.994,2.994,0,0,0-.278,1.425,7.66,7.66,0,0,0,1.274,4.113,6.246,6.246,0,0,0,4.1,2.489,27.442,27.442,0,0,0,2.744.434,11.387,11.387,0,0,0,1.6.011c.535-.027,1.175-.083,1.936-.17,1.278-.147,1.984-.184,2.215-.2l6.363-.33a3.009,3.009,0,0,0,1.318-.382,4.857,4.857,0,0,0,1.642-1.539,2912.748,2912.748,0,0,1,1.894-2.1,5.046,5.046,0,0,0,.947-1.051,18694.15,18694.15,0,0,1,1.893-2.1,2966.546,2966.546,0,0,0,1.894-2.1,2828.587,2828.587,0,0,0,1.894-2.1,32452.984,32452.984,0,0,1,1.893-2.1,3012.149,3012.149,0,0,0,1.894-2.1,2912.748,2912.748,0,0,0,1.894-2.1,4.983,4.983,0,0,0,.946-1.05,4.567,4.567,0,0,0,.419-.382c2.67,6.909,4.255,11.051,4.716,12.326a2.933,2.933,0,0,0,.211.459l1.139,2.01a3,3,0,0,0,2.765,1.517l17.8-.923a8.055,8.055,0,0,0,3.422-2.627,2.944,2.944,0,0,0,.277-.217c.961,2.8,3.987,3.911,18.731,3.146l2.149-.112c.062,0,.123-.008.185-.015,6.911-.789,12.4-1.465,13.522-1.664.922-.142,2.144-.382,3.733-.733,1.508-.332,2.847-.667,4.095-1.024,1.8-.515,2.538-.775,3.176-1.479.016-.017.334-.4.618-.74a3.081,3.081,0,0,0,.329-.31c.016-.018.334-.4.618-.741.049-.04.1-.083.146-.128l.478,2.935a2.823,2.823,0,0,0,.092.4c.234.765,1.29,3.244,5.055,3.048a97.8,97.8,0,0,0,14.135-1.8,3.017,3.017,0,0,0,.672-.218,6.843,6.843,0,0,0,3.113-2.289,2819.665,2819.665,0,0,0,1.894-2.1c.056-.044.115-.084.169-.13a6.445,6.445,0,0,0,.544.955,6.241,6.241,0,0,0,4.105,2.491,27.761,27.761,0,0,0,2.744.435,11.385,11.385,0,0,0,1.6.011c.534-.028,1.175-.083,1.936-.17,1.278-.148,1.984-.184,2.215-.2l6.363-.33a3.009,3.009,0,0,0,1.318-.382,4.837,4.837,0,0,0,1.642-1.539,3012.182,3012.182,0,0,0,1.894-2.1,20666.94,20666.94,0,0,1,1.893-2.1,3129.491,3129.491,0,0,0,1.894-2.1,4.989,4.989,0,0,0,.947-1.05,5.045,5.045,0,0,0,.947-1.051,122926.436,122926.436,0,0,1,1.893-2.1,2819.665,2819.665,0,0,0,1.894-2.1,3012.182,3012.182,0,0,0,1.894-2.1,18694.15,18694.15,0,0,1,1.893-2.1,4.72,4.72,0,0,0,.419-.381c2.67,6.908,4.255,11.051,4.716,12.326a3.014,3.014,0,0,0,.211.459l1.139,2.01a3,3,0,0,0,2.765,1.517l17.8-.924a8.084,8.084,0,0,0,3.423-2.626c.055-.038.111-.073.163-.114l.042,1.014c.1,2,1.667,3.952,4.925,3.783l1.289-.067q.06,0,.12-.009c2.162-.2,9.108-.732,20.643-1.586,11.495-.851,18.467-1.387,20.722-1.594a3.574,3.574,0,0,0,2.652-1.743,3129.491,3129.491,0,0,0,1.894-2.1,4.777,4.777,0,0,0,.947-1.05,3180.365,3180.365,0,0,0,1.894-2.1,23107.6,23107.6,0,0,1,1.893-2.1,2819.665,2819.665,0,0,0,1.894-2.1,3012.182,3012.182,0,0,0,1.894-2.1,32440.306,32440.306,0,0,1,1.893-2.1,3012.182,3012.182,0,0,0,1.894-2.1,3232.838,3232.838,0,0,0,1.894-2.1,20666.94,20666.94,0,0,1,1.893-2.1,5.118,5.118,0,0,0,1.029-1.169,3.906,3.906,0,0,0,.816-2.447c0-.048-.006-.1-.01-.145L701.685,164.4a3,3,0,0,0-3.14-2.695l-21.511,1.116-.542-10.449a2.893,2.893,0,0,0,.757-.914,3232.838,3232.838,0,0,0,1.894-2.1,2819.665,2819.665,0,0,0,1.894-2.1,18694.15,18694.15,0,0,1,1.893-2.1,2819.665,2819.665,0,0,0,1.894-2.1,2966.579,2966.579,0,0,0,1.894-2.1,2895.175,2895.175,0,0,0,1.893-2.1,2819.665,2819.665,0,0,1,1.894-2.1,3129.491,3129.491,0,0,1,1.894-2.1c1.811-1.184,1.848-4.227,1.918-10.834,0-.063,0-.125,0-.188-.017-.343-.028-1-.045-1.976-.017-.934-.038-2.142-.074-3.624-.038-1.577-.058-2.818-.073-3.734-.016-.933-.028-1.55-.044-1.861a3,3,0,0,0-3.151-2.841,120.086,120.086,0,0,1-16.652.037l-.029-.565c-.012-.225-.025-.671-.036-1.467.772-.164,1.5-.335,2.149-.52a2.989,2.989,0,0,0,1.805-1.457,2.989,2.989,0,0,0,.947-1.05,2.992,2.992,0,0,0,.947-1.051,2.99,2.99,0,0,0,.947-1.05,3,3,0,0,0,.947-1.051,2.99,2.99,0,0,0,.947-1.05,3.011,3.011,0,0,0,.947-1.051,2.987,2.987,0,0,0,.946-1.05,2.992,2.992,0,0,0,.947-1.051,2.98,2.98,0,0,0,.947-1.05,3,3,0,0,0,.947-1.051,3,3,0,0,0,.947-1.05,3,3,0,0,0,.947-1.051,2.987,2.987,0,0,0,.946-1.05,2.989,2.989,0,0,0,.947-1.05,3,3,0,0,0,.947-1.051,3,3,0,0,0,.947-1.05,3,3,0,0,0,.947-1.051,3.008,3.008,0,0,0,.947-1.05,3,3,0,0,0,.946-1.051,2.993,2.993,0,0,0,1.313-2.633c-.093-1.806-.133-5.39.213-12.206.005-.1.005-.205,0-.307l-.112-2.149c-.269-5.189-3.556-6.873-6.542-6.718"/>
            <path id="Path_175" data-name="Path 175" d="M991.72,49.877a3,3,0,0,0-3.115-2.842L933.587,49.2a2.941,2.941,0,0,0-2.482,1.581,3.076,3.076,0,0,0-.439.369A6.232,6.232,0,0,0,927,50.232l-40.33,2.092a3.107,3.107,0,0,0-2.508,1.579,3.176,3.176,0,0,0-.947,1.051,3.065,3.065,0,0,0-.588.542c-.407-1.96-2.091-3.888-5.809-3.695a48.827,48.827,0,0,0-10.333,2.171,41.912,41.912,0,0,1-8.939,1.934,3,3,0,0,0-2.487,1.579,2.981,2.981,0,0,0-.946,1.051,2.981,2.981,0,0,0-.947,1.05,2.974,2.974,0,0,0-.947,1.051,2.981,2.981,0,0,0-.947,1.05,2.994,2.994,0,0,0-.947,1.051,2.991,2.991,0,0,0-.947,1.05,3,3,0,0,0-.947,1.05,2.99,2.99,0,0,0-.946,1.051,2.98,2.98,0,0,0-.947,1.05,2.984,2.984,0,0,0-.947,1.051,3,3,0,0,0-.947,1.05,3,3,0,0,0-.947,1.051,3,3,0,0,0-.947,1.05,3.025,3.025,0,0,0-.615.565c.149-5.992.141-10.726-.032-14.065a3,3,0,0,0-3.152-2.841,143.987,143.987,0,0,0-18.994,2.22,3,3,0,0,0-1.884,1.2c-.075.105-.138.224-.206.336a3,3,0,0,0-.741.715c-.075.1-.138.223-.206.336a2.991,2.991,0,0,0-.741.714c-.075.1-.138.224-.206.336a2.994,2.994,0,0,0-.741.715c-.075.1-.138.223-.206.336a3.007,3.007,0,0,0-.741.714c-.074.1-.138.224-.206.336a3,3,0,0,0-.486.423l-.031-.6c-.09-4.139-1.418-6.758-3.949-7.782a3,3,0,0,0-1.281-.215l-8.1.421c-.242.008-.48.017-.714.029-4.34.225-7.511,1.288-9.693,3.247a2.883,2.883,0,0,0-.582.758c-.057.047-.118.091-.174.139a2.994,2.994,0,0,0-2.785-1.64L731.267,59.7a2.944,2.944,0,0,0-2.483,1.582,2.968,2.968,0,0,0-.562.484,3.024,3.024,0,0,0-.385.566,2.739,2.739,0,0,0-.947,1.051,2.932,2.932,0,0,0-.561.484,2.981,2.981,0,0,0-.385.566,3.008,3.008,0,0,0-.562.484,2.951,2.951,0,0,0-.385.567,2.724,2.724,0,0,0-.947,1.05,3.042,3.042,0,0,0-.562.484,3,3,0,0,0-.385.567,3,3,0,0,0-.562.483,3.028,3.028,0,0,0-.385.567,2.717,2.717,0,0,0-.947,1.051,2.714,2.714,0,0,0-.946,1.05,3.01,3.01,0,0,0-.562.484,2.951,2.951,0,0,0-.385.567,2.706,2.706,0,0,0-.947,1.05,2.718,2.718,0,0,0-.947,1.051,2.706,2.706,0,0,0-.947,1.05,3,3,0,0,0-.562.484,3.043,3.043,0,0,0-.385.567,2.713,2.713,0,0,0-.946,1.05,2.718,2.718,0,0,0-.947,1.051,2.706,2.706,0,0,0-.947,1.05,2.717,2.717,0,0,0-.947,1.051,2.706,2.706,0,0,0-.947,1.05,2.968,2.968,0,0,0-.562.484,3,3,0,0,0-.735,2.247l1.854,20.769a3,3,0,0,0,3.144,2.729c1.829-.094,4.528-.408,8.254-.959,1.888-.279,3.54-.5,4.941-.654.279,6.227.557,14.861.831,25.736.325,12.9.656,22.652.986,29l2.043,39.382a8.01,8.01,0,0,0,.365,1.925,3.989,3.989,0,0,0,2.14,2.533,4.04,4.04,0,0,0,1.872.388l.774-.04a88.822,88.822,0,0,0,10.662-1.527c5.522-1.024,7.561-1.353,8.3-1.449a9,9,0,0,0,3.192-2.608,2819.665,2819.665,0,0,0,1.894-2.1,3012.182,3012.182,0,0,0,1.894-2.1,32440.306,32440.306,0,0,1,1.893-2.1,3012.182,3012.182,0,0,0,1.894-2.1,3180.365,3180.365,0,0,0,1.894-2.1,2627.781,2627.781,0,0,1,1.893-2.1,3129.491,3129.491,0,0,1,1.894-2.1,2922.267,2922.267,0,0,1,1.894-2.1,2.993,2.993,0,0,0,.946-1.051l.04-.026.5,9.827c.006.11.018.22.035.329l1.518,9.32a3.2,3.2,0,0,0,.094.4c.235.764,1.292,3.24,5.054,3.045a97.912,97.912,0,0,0,14.135-1.8,2.969,2.969,0,0,0,.674-.219,6.846,6.846,0,0,0,3.111-2.289,4.024,4.024,0,0,0,.947-1.051,4.573,4.573,0,0,0,.574-.539l.048.717a3,3,0,0,0,2.217,2.7l3.235.867a2.958,2.958,0,0,0,.932.1l.86-.044a63.381,63.381,0,0,0,16.5-2.945,13.262,13.262,0,0,0,2.641-2.479,2740.724,2740.724,0,0,0,1.894-2.1,3012.182,3012.182,0,0,0,1.894-2.1,18694.15,18694.15,0,0,1,1.893-2.1,3232.838,3232.838,0,0,0,1.894-2.1,2819.665,2819.665,0,0,0,1.894-2.1,2.992,2.992,0,0,0,.8-.794c.315,1.008.631,1.995.951,2.949,1.451,4.32,2.339,6.457,3.167,7.623a3,3,0,0,0,2.6,1.258l6.364-.33c.687-.036,1.529-.052,2.5-.049,1.638.007,3.053-.066,4.3-.131a38.283,38.283,0,0,0,4.377-.507,11.9,11.9,0,0,0,4.642-1.683,6.038,6.038,0,0,0,1.594-1.552c.118-.1.226-.211.333-.32l.094,2.3c.1,2,1.667,3.952,4.925,3.783l1.29-.067.12-.008c2.16-.2,9.106-.733,20.643-1.587,11.495-.851,18.466-1.387,20.72-1.593a3.574,3.574,0,0,0,2.653-1.742,3012.182,3012.182,0,0,0,1.894-2.1,18694.15,18694.15,0,0,1,1.893-2.1,3180.365,3180.365,0,0,0,1.894-2.1,2740.724,2740.724,0,0,0,1.894-2.1,18694.15,18694.15,0,0,1,1.893-2.1,2819.665,2819.665,0,0,0,1.894-2.1,4.723,4.723,0,0,0,.947-1.05,4.794,4.794,0,0,0,.947-1.05,4.1,4.1,0,0,0,.466-.435l.536,10.33a7.928,7.928,0,0,0,.362,1.917,3.99,3.99,0,0,0,2.139,2.54,4.045,4.045,0,0,0,1.875.388l.774-.04a88.551,88.551,0,0,0,10.661-1.526c5.523-1.024,7.561-1.353,8.3-1.449a9,9,0,0,0,3.192-2.608,3232.838,3232.838,0,0,0,1.894-2.1,18694.15,18694.15,0,0,1,1.893-2.1,2819.665,2819.665,0,0,0,1.894-2.1,3012.182,3012.182,0,0,0,1.894-2.1,20666.94,20666.94,0,0,1,1.893-2.1,3129.491,3129.491,0,0,0,1.894-2.1,3129.491,3129.491,0,0,0,1.894-2.1,18694.15,18694.15,0,0,1,1.893-2.1,2819.665,2819.665,0,0,0,1.894-2.1,2.986,2.986,0,0,0,1.314-2.431c.13-10.552.124-16-.02-18.757-.146-4.5-.94-18.12-2.358-40.493q-.762-12.02-1.264-20.2c.027-.034.061-.061.086-.1l.243-.353a2.931,2.931,0,0,0,.7-.7l.244-.352a2.965,2.965,0,0,0,.7-.7l.243-.352a2.976,2.976,0,0,0,.7-.7l.243-.352a2.972,2.972,0,0,0,.7-.7l.243-.352a2.975,2.975,0,0,0,.7-.7l.243-.352a2.971,2.971,0,0,0,.7-.7l.243-.352a2.953,2.953,0,0,0,.7-.7l.244-.352a2.967,2.967,0,0,0,.7-.7l.243-.352a2.989,2.989,0,0,0,.7-.7l.243-.353a2.971,2.971,0,0,0,.7-.7l.243-.352a2.99,2.99,0,0,0,.7-.7l.243-.353a2.952,2.952,0,0,0,.7-.7l.243-.352a2.99,2.99,0,0,0,.7-.7l.243-.353a2.947,2.947,0,0,0,.7-.7l.244-.352a2.986,2.986,0,0,0,.7-.7l.8-1.163a3,3,0,0,0,.521-1.958,74.185,74.185,0,0,1,0-9.676c.252-4.824.315-7.541.22-9.378M931.827,150.093l.018.334-18.832.977-.543-10.45a2.871,2.871,0,0,0,.758-.914,3129.491,3129.491,0,0,0,1.894-2.1,2627.781,2627.781,0,0,1,1.893-2.1,2740.724,2740.724,0,0,1,1.894-2.1,3180.365,3180.365,0,0,1,1.894-2.1,18694.15,18694.15,0,0,0,1.893-2.1,3012.182,3012.182,0,0,1,1.894-2.1,2819.665,2819.665,0,0,1,1.894-2.1,20667.887,20667.887,0,0,0,1.893-2.1c1.812-1.184,1.848-4.226,1.919-10.834,0-.062,0-.125,0-.187-.018-.342-.028-1-.045-1.965-.017-.935-.038-2.147-.074-3.636-.038-1.576-.06-2.817-.075-3.733-.015-.933-.026-1.55-.043-1.862a3,3,0,0,0-3.151-2.84,120.391,120.391,0,0,1-16.651.037l-.03-.565c-.012-.227-.024-.673-.036-1.467.772-.165,1.5-.335,2.15-.52a2.98,2.98,0,0,0,1.428-.919,3,3,0,0,0,3.049,2.229c1.831-.1,4.53-.408,8.255-.959,1.888-.279,3.54-.5,4.942-.655.277,6.2.556,14.839.831,25.737.323,12.859.654,22.615.985,29M865.854,113.1a43.589,43.589,0,0,1-2.548-7.8,20.5,20.5,0,0,1,.848-3.013q.518-1.667,1.146-3.543l.592,14.45-.038-.092"/>
            <path id="Path_176" data-name="Path 176" d="M377.844,178.769c-2.035-14.293-3.327-24.228-3.788-29.808l-.049-.946c-.123-.684-.23-1.108-.244-1.366a93.925,93.925,0,0,1-.855-13.148c0-4.915.007-9.829.007-14.83a61.123,61.123,0,0,1,6.745-27.855,25.776,25.776,0,0,1,8.81-9.681,29.525,29.525,0,0,1,13.471-4.58,34.077,34.077,0,0,1,10.2.591,23.288,23.288,0,0,1,7.664,3.138,18.885,18.885,0,0,1,5.472,5.752,49.961,49.961,0,0,1,3.819,7.13,39.272,39.272,0,0,1,2.433,8.668c.613,3.5,1.109,6.409,1.4,8.807s.63,5.486,1,9.26a18.087,18.087,0,0,1,.306,2.572c.295,4.037.534,6.956.717,8.843s.354,5.155.6,9.884.356,8.518.25,11.454-.258,6.653-.542,11.151a55.589,55.589,0,0,1-1.583,11.031q-1.2,4.332-3.129,9.475a25.742,25.742,0,0,1-4.745,8.265,26.544,26.544,0,0,1-6.96,5.448,22.438,22.438,0,0,1-9.171,2.718c-7.811.663-14.526-.8-20.058-4.392s-9.275-9.262-11.224-16.92Zm17.342-13.057a3.91,3.91,0,0,0,.316,1.1,3.909,3.909,0,0,1,.317,1.1c.857,3.232,1.5,5.613,2.008,7.138a10.035,10.035,0,0,0,3.423,4.478,9.266,9.266,0,0,0,6.9,1.8c2.92-.238,5.162-3.544,6.646-9.83a88.923,88.923,0,0,0,2.1-21.059c-.057-7.757-.173-14.994-.264-21.714s-.382-10.672-.788-11.857c-1.246-15.714-5.088-23.274-11.437-22.686-2.919.237-5.333,1.914-7.33,4.949a27.23,27.23,0,0,0-3.9,11.239,99.79,99.79,0,0,0-1.018,11.951c-.075,3.539-.081,6.729.066,9.567.116,2.236.582,7.9,1.4,17.085q.189,1.153.944,8.228c.5,4.716.732,7.463.772,8.237Z" fill="#fff"/>
            <path id="Path_177" data-name="Path 177" d="M445.265,192.083q-.381-7.353-.119-22.239c.175-9.925.153-16.993-.07-21.293l-3.659-70.51a7.258,7.258,0,0,1,1.718-3.451l4.385-.228a31.824,31.824,0,0,1,12.5,1.679c1.689,4.31,4.161,10.389,7.5,18.234s5.7,13.5,7,16.967q.759,2.16,2.465,7.632c1.138,3.648,2.254,6.867,3.433,9.651a35.4,35.4,0,0,0,3.814,7.044c.264-8.2.331-20.192.117-35.959s-.339-24.814-.373-27.14a2.108,2.108,0,0,1,2.086-1.315,36.941,36.941,0,0,1,7.1.666,38.455,38.455,0,0,0,7.792.63l6.2,119.524-17.8.923-1.139-2.01q-1.056-2.919-9.567-24.852T468.5,139.662c-3.275-8.279-5.666-12.811-7.168-13.509.764,8.065,1.157,20.633,1.266,37.7s.153,26.2.211,27.321a5.849,5.849,0,0,0,.135.94,7.835,7.835,0,0,1,.157,1.372,2.422,2.422,0,0,1-.277,1.308,2.056,2.056,0,0,1-.815.9l-6.363.33c-.258.013-1.032.054-2.4.212a15.956,15.956,0,0,1-2.923.151c-.606-.055-1.389-.186-2.434-.391a3.281,3.281,0,0,1-2.222-1.264,4.787,4.787,0,0,1-.735-2.548Z" fill="#fff"/>
            <path id="Path_178" data-name="Path 178" d="M509.018,74.879q3.109-2.359,5.31-2.345l15.478-.8c.477,9.2,1.033,23.226,1.584,42.166s1.1,32.879,1.572,41.907l.267,5.16.317,6.1.3,2.57L535.819,171l18.659-.968.884,17.026-.974,1.171a8.209,8.209,0,0,1-1.779.61c-1.1.316-2.381.641-3.915.979s-2.729.573-3.585.7c-.6.117-5.05.694-13.365,1.642l-2.149.112c-10.061.522-15.342.106-15.753-1.166Z" fill="#fff"/>
            <path id="Path_179" data-name="Path 179" d="M554.648,71.993c1.731-1.555,4.532-2.39,8.492-2.51l2.838-.147,5.331-.277q1.981.8,2.074,5.066l5.947,114.622c.014.258-.571.633-1.834,1.216a95.293,95.293,0,0,1-13.7,1.747c-1.118.058-1.824-.251-2.032-.93l-1.518-9.319Z" fill="#fff"/>
            <path id="Path_180" data-name="Path 180" d="M586.537,184.753q-.381-7.353-.119-22.239c.175-9.925.153-16.993-.07-21.293l-3.659-70.51a7.258,7.258,0,0,1,1.718-3.451l4.385-.228a31.824,31.824,0,0,1,12.5,1.679c1.689,4.31,4.161,10.389,7.5,18.234s5.7,13.5,7,16.967q.759,2.16,2.465,7.632c1.138,3.648,2.254,6.867,3.433,9.651a35.4,35.4,0,0,0,3.814,7.044c.264-8.2.331-20.192.117-35.959s-.339-24.814-.373-27.14a2.108,2.108,0,0,1,2.086-1.315,36.941,36.941,0,0,1,7.1.666,38.455,38.455,0,0,0,7.792.63l6.2,119.524-17.8.923-1.139-2.01q-1.056-2.919-9.567-24.852T609.77,132.332c-3.275-8.279-5.666-12.811-7.168-13.509.764,8.065,1.156,20.633,1.266,37.7s.153,26.2.211,27.321a5.851,5.851,0,0,0,.135.94,7.829,7.829,0,0,1,.157,1.372,2.422,2.422,0,0,1-.277,1.308,2.056,2.056,0,0,1-.815.9l-6.363.33c-.258.013-1.032.054-2.4.212a15.953,15.953,0,0,1-2.923.151c-.606-.055-1.389-.186-2.434-.391a3.276,3.276,0,0,1-2.221-1.264,4.778,4.778,0,0,1-.736-2.548Z" fill="#fff"/>
            <path id="Path_181" data-name="Path 181" d="M651.021,83.288l-.7-13.414a9.065,9.065,0,0,1,.1-1.3q.09-.781.191-1.3c.069-.348.146-.525.232-.529l40.329-2.093c2.149-.112,3.252,1.211,3.39,3.877l.112,2.149c-.3,5.879-.342,10.02-.213,12.513-4.418,1.264-12.224,2.014-23.331,2.331-.019,1.3.019,5.346.023,12.071s.033,10.6.087,11.635l.071,1.376.085,1.633c3.574.763,10.132.854,19.676.359.032.6.04,2.412.115,5.512s.086,5,.122,5.684c-.059,5.521-.26,8.29-.686,8.4l-18.143.942,1.66,31.987,1.162.8,23.389-1.214,1.774,17.583c.005.086-.072.262-.312.62s-.4.538-.489.543c-2.146.2-9.015.726-20.7,1.591s-18.55,1.394-20.7,1.591l-1.29.067c-1.118.058-1.737-.254-1.773-.942Z" fill="#fff"/>
            <path id="Path_182" data-name="Path 182" d="M751.44,139.427q-.5-9.546-.982-28.919t-.984-28.919q-2.838.147-8.228.945t-7.97.93L731.422,62.7,786.4,60.532c.1,1.892,0,4.915-.22,9.065a76.8,76.8,0,0,0,.007,10.087l-.8,1.162-15.822.821c.121,2.322.849,14.7,2.272,37.13s2.208,35.924,2.355,40.4c.156,3.01.133,9.219.017,18.623q-1.669.216-8.459,1.474a88.457,88.457,0,0,1-10.269,1.481l-.774.04a1.226,1.226,0,0,1-.525-.145,1.07,1.07,0,0,1-.466-.666,5.1,5.1,0,0,1-.234-1.195Z" fill="#fff"/>
            <path id="Path_183" data-name="Path 183" d="M791.831,60.508c1.731-1.555,4.532-2.39,8.492-2.51l2.838-.147,5.331-.277q1.981.8,2.074,5.066l5.947,114.622c.014.258-.571.633-1.834,1.217a95.431,95.431,0,0,1-13.7,1.746c-1.118.058-1.824-.251-2.032-.93l-1.518-9.319Z" fill="#fff"/>
            <path id="Path_184" data-name="Path 184" d="M822.8,165.556q-.93-17.93-1.731-51.643c-.562-22.473-.958-38.4-1.268-47.7q-.255-4.9.71-6.245a140.044,140.044,0,0,1,18.6-2.172q.315,6.063-.1,18.111t-.109,17.853a58.864,58.864,0,0,0,1.455,9.754c1.364-3.606,4.113-10.474,8.238-20.69s7.16-18.218,9.106-23.923a46.137,46.137,0,0,0,9.635-2.053,46.2,46.2,0,0,1,9.637-2.052c1.806-.094,2.7.464,2.755,1.582l-.146.525a8.059,8.059,0,0,1-.384.882,3.287,3.287,0,0,1-.4.71c-.852,1.855-2.321,5.121-4.488,9.89s-3.866,8.563-5.1,11.386-2.6,6.343-4.112,10.474-2.785,7.818-3.82,11.148a14.942,14.942,0,0,0-.994,4.1,43.861,43.861,0,0,0,2.782,8.736q2.223,5.446,5.285,12.142t3.823,8.854c.785,1.857,3.062,7.516,6.834,17.062s5.949,14.952,6.446,16.22l.2.507.026.516a2.307,2.307,0,0,1-1.187,2.044,9.025,9.025,0,0,1-3.472,1.216,35.28,35.28,0,0,1-4.028.467c-1.2.063-2.579.134-4.132.128s-2.412.039-2.669.053l-6.364.33c-.651-.915-1.545-3.2-2.769-6.84s-2.275-7.3-3.241-10.954-2.039-7.741-3.3-12.158-1.914-6.972-2.035-7.654a114.351,114.351,0,0,1-3.9-15.318l-7.129,13.82c-.032,1.036.6,14.8,1.965,41.2a59.955,59.955,0,0,1-15.719,2.8l-.859.045-3.236-.867Z" fill="#fff"/>
            <path id="Path_185" data-name="Path 185" d="M887,71.866l-.7-13.414a8.933,8.933,0,0,1,.1-1.3q.09-.781.191-1.3c.069-.348.146-.525.232-.529l40.329-2.093c2.149-.112,3.252,1.211,3.39,3.877l.112,2.149c-.3,5.879-.342,10.02-.213,12.513-4.418,1.264-12.224,2.015-23.331,2.331-.019,1.295.019,5.346.023,12.071s.033,10.6.087,11.635l.071,1.375.085,1.634c3.574.763,10.132.854,19.676.359.032.6.04,2.412.114,5.512s.087,5,.123,5.684c-.059,5.521-.26,8.29-.686,8.4l-18.143.942,1.66,31.987,1.162.8,23.389-1.214,1.774,17.583c0,.086-.072.262-.312.62s-.4.538-.489.543c-2.146.2-9.015.726-20.7,1.591s-18.551,1.394-20.7,1.591l-1.29.067c-1.117.058-1.737-.254-1.773-.942Z" fill="#fff"/>
            <path id="Path_186" data-name="Path 186" d="M953.76,128.929q-.5-9.546-.982-28.919t-.984-28.919q-2.838.147-8.228.945t-7.97.93L933.742,52.2l54.982-2.164c.1,1.892,0,4.915-.22,9.065a76.8,76.8,0,0,0,.007,10.087l-.8,1.162-15.822.821c.121,2.322.849,14.7,2.272,37.13s2.208,35.924,2.355,40.4c.156,3.01.133,9.219.017,18.623q-1.669.216-8.459,1.474a88.457,88.457,0,0,1-10.269,1.481l-.774.04a1.226,1.226,0,0,1-.525-.145,1.066,1.066,0,0,1-.466-.666,5.1,5.1,0,0,1-.234-1.195Z" fill="#fff"/>
            <rect id="Rectangle_40" data-name="Rectangle 40" width="68.343" height="338.696" transform="translate(507.052 269.18) rotate(-87.959)" fill="#a48f7c"/>
            <path id="Path_201" data-name="Path 201" d="M0,0H68.343V338.7H0Z" transform="translate(507.052 269.18) rotate(-87.959)" fill="none" stroke="#000" stroke-width="3"/>
            <rect id="Rectangle_42" data-name="Rectangle 42" width="57.274" height="326.559" transform="matrix(0.036, -0.999, 0.999, 0.036, 513.313, 263.865)"/>
            <path id="Path_187" data-name="Path 187" d="M584.4,254.393c-.114-2.359-.112-5.505.028-9.438.046-1.3.18-3.207.381-5.729s.333-4.433.38-5.729c.094-2.637.079-5.3-.024-7.988a1.627,1.627,0,0,1,.762-1.007,3.464,3.464,0,0,1,1.579-.45q.958-.063,1.718-.07a18.861,18.861,0,0,1,1.889.089c.746.071,1.206.109,1.36.114,2.527.09,4.349.816,5.468,2.153s1.642,3.315,1.549,5.93a15.7,15.7,0,0,1-.962,5.379,11.224,11.224,0,0,1-.585.969,4.712,4.712,0,0,0-.563.992,3.081,3.081,0,0,0,.69.992,6.183,6.183,0,0,1,.8,1.041q.552,1.174.419,4.9-.177,4.977-2.29,6.849c-1.409,1.248-3.827,1.8-7.233,1.678-.088,0-.462.006-1.122,0s-1.209-.02-1.648-.058a12.727,12.727,0,0,1-1.444-.228,2.419,2.419,0,0,1-1.127-.48ZM589.98,228.8a67.52,67.52,0,0,0,.042,8.1,2.432,2.432,0,0,1,.35.035,2.5,2.5,0,0,0,.307.032,3.251,3.251,0,0,0,2.975-1.346,6.083,6.083,0,0,0,1.066-3.394,3.341,3.341,0,0,0-1.279-2.993,5.92,5.92,0,0,0-3.416-1.091Zm4.522,16.971a3,3,0,0,0-1.225-3.278,4.058,4.058,0,0,0-3.641-.328l-.3,8.372a6.654,6.654,0,0,0,4.032-.759q1.152-.849,1.135-4.051Z" fill="#fff"/>
            <path id="Path_188" data-name="Path 188" d="M610.6,229.54l.122-3.428a2.259,2.259,0,0,1,.056-.329c.027-.131.052-.239.077-.326s.049-.131.071-.13l10.306.368c.549.019.8.38.776,1.061l-.019.55c-.207,1.488-.311,2.541-.334,3.178a27.933,27.933,0,0,1-5.987.072c-.034.329-.114,1.36-.263,3.071s-.228,2.7-.238,2.962l-.012.351-.015.418a22.944,22.944,0,0,0,5,.53c-.005.154-.044.615-.094,1.4s-.089,1.273-.095,1.448c-.139,1.4-.252,2.1-.362,2.122l-4.636-.166-.292,8.175.278.23,5.977.213.059,4.512c0,.023-.024.066-.093.152s-.115.127-.137.127c-.55,0-2.31-.017-5.3-.057s-4.751-.06-5.3-.057l-.329-.012c-.286-.01-.437-.1-.431-.279Z" fill="#fff"/>
            <path id="Path_189" data-name="Path 189" d="M636.363,256.6l-.223.08c-.11.019-.265.035-.442.072a1.815,1.815,0,0,1-.4.053l-.771.016-1.077-.038c-.11,0-.417-.015-.922-.056s-.812-.05-.9-.053c-.13-1.919-.136-4.823,0-8.713l.034-.945c.067-1.867.245-5.03.537-9.508s.459-7.947.481-10.411a1.335,1.335,0,0,1,.534-.795,28.031,28.031,0,0,1,4.1-.162c1.231.044,2.263.1,3.1.2a13.411,13.411,0,0,1,2.619.578,5.35,5.35,0,0,1,2.136,1.2,5.809,5.809,0,0,1,1.267,2.092,8.212,8.212,0,0,1,.435,3.227l-.027.77a11.3,11.3,0,0,1-1.618,5.883,6.216,6.216,0,0,1-3.929,2.83,4.84,4.84,0,0,1,3.089,2.222,11.1,11.1,0,0,1,1.7,4.175q.444,2.325.591,3.783a17.794,17.794,0,0,1,.12,2.183l-.064,1.8a42.076,42.076,0,0,1-4.492.1l-1.1-.039c.006-.176,0-.726.014-1.628s-.007-1.651-.053-2.224-.106-1.346-.181-2.316a10.951,10.951,0,0,0-.4-2.391,15.215,15.215,0,0,0-.746-1.918,3.715,3.715,0,0,0-1.2-1.495,3.17,3.17,0,0,0-1.74-.569Zm1.077-16.639.681.024a3.221,3.221,0,0,0,2.021-.522,3.054,3.054,0,0,0,1.159-1.652,13.042,13.042,0,0,0,.466-1.964,20.408,20.408,0,0,0,.165-2.172c.073-2.044-.813-3.109-2.68-3.2l-.044,0-.044,0c-1.076-.038-1.61.119-1.6.493l-.274,7.691Z" fill="#fff"/>
            <path id="Path_190" data-name="Path 190" d="M657.119,254.255q.164-4.583.712-13.175c.358-5.731.613-9.791.741-12.163a2.962,2.962,0,0,1,.32-1.573,35.5,35.5,0,0,1,4.779-.137q-.054,1.548-.427,4.6t-.427,4.54a15.159,15.159,0,0,0,.153,2.513c.428-.887,1.28-2.573,2.557-5.079s2.228-4.475,2.85-5.883a11.72,11.72,0,0,0,2.5-.307,11.879,11.879,0,0,1,2.5-.308c.461.017.675.179.665.465l-.049.13a2.036,2.036,0,0,1-.117.216.821.821,0,0,1-.116.171c-.259.453-.705,1.252-1.363,2.416s-1.174,2.093-1.551,2.783-.8,1.556-1.28,2.573-.882,1.927-1.22,2.75a3.786,3.786,0,0,0-.344,1.022,11.159,11.159,0,0,0,.512,2.285q.444,1.435,1.074,3.207t.775,2.337c.158.49.612,1.98,1.358,4.493s1.18,3.936,1.278,4.27l.039.133-.005.132a.59.59,0,0,1-.347.494,2.315,2.315,0,0,1-.911.231,8.906,8.906,0,0,1-1.035.03c-.307-.011-.659-.024-1.054-.06s-.614-.044-.68-.046l-1.626-.058a8.726,8.726,0,0,1-.552-1.8c-.23-.954-.416-1.907-.58-2.859s-.347-2.014-.569-3.166-.331-1.816-.347-1.994a29.114,29.114,0,0,1-.651-3.982l-2.121,3.356c-.031.263-.179,3.778-.419,10.524a15.268,15.268,0,0,1-4.061.361l-.22-.007-.8-.293Z" fill="#fff"/>
            <path id="Path_191" data-name="Path 191" d="M684.541,232.175l.122-3.428a2.259,2.259,0,0,1,.056-.329c.027-.131.052-.239.077-.326s.049-.131.071-.13l10.306.368c.549.019.8.38.776,1.061l-.019.55c-.207,1.488-.311,2.541-.334,3.178a27.935,27.935,0,0,1-5.987.072c-.034.329-.114,1.36-.263,3.071s-.228,2.7-.238,2.962l-.012.351-.015.418a22.942,22.942,0,0,0,5,.53c-.005.154-.044.615-.094,1.4s-.089,1.273-.1,1.448c-.139,1.4-.252,2.1-.362,2.122l-4.636-.166-.292,8.175.278.23,5.977.213.059,4.512c0,.023-.024.066-.093.152s-.115.127-.137.127c-.55,0-2.31-.017-5.3-.057s-4.751-.06-5.3-.057l-.329-.012c-.286-.01-.437-.1-.431-.279Z" fill="#fff"/>
            <path id="Path_192" data-name="Path 192" d="M706.649,228.936a2.391,2.391,0,0,1,1.4-.478l3.955.141c-.084,2.351-.254,5.931-.537,10.762s-.453,8.389-.535,10.7l-.047,1.319-.056,1.559.02.661.47.39,4.769.17-.155,4.352-.274.276a2.094,2.094,0,0,1-.466.115c-.289.056-.62.11-1.018.162s-.707.085-.927.1c-.155.017-1.3.064-3.438.12l-.549-.02c-2.571-.091-3.9-.315-3.981-.648Z" fill="#fff"/>
            <path id="Path_193" data-name="Path 193" d="M725.742,260.31q.444-4.111,1.989-11.393t2.027-10.554c.117-.81.538-2.754,1.285-5.829a5.172,5.172,0,0,1,.966-2.387,3.564,3.564,0,0,1,2.37-.443,10.816,10.816,0,0,1,2.78.407q.671,2.5,2.291,12.887t2.138,17.172a2.17,2.17,0,0,1-.033.306,2.559,2.559,0,0,0-.034.352,12.359,12.359,0,0,1-3.066.2c-.066,0-.307-.01-.724-.048s-.659-.045-.724-.047c-.327-.1-.575-1.187-.743-3.24s-.417-3.138-.764-3.26a16.321,16.321,0,0,0-2.648-.4,1.545,1.545,0,0,0-1.294.5,16.489,16.489,0,0,0-.352,1.836c-.168,1.028-.356,1.967-.561,2.8s-.374,1.241-.528,1.235l-4.373-.156Zm8.6-22.774a81.025,81.025,0,0,0-2.664,11.764l3.933.184a104.376,104.376,0,0,0-1.291-11.949Z" fill="#fff"/>
            <path id="Path_194" data-name="Path 194" d="M751.179,255.033c.02-.549.543-1.037,1.571-1.484a3.588,3.588,0,0,1,2.108-.475q.293.108.555,1.075a7.863,7.863,0,0,0,.791,1.877,1.847,1.847,0,0,0,1.55.979,3.127,3.127,0,0,0,1.962-.722,2.2,2.2,0,0,0,1.135-1.61,8.506,8.506,0,0,0-.828-3.923,14.585,14.585,0,0,0-2.21-3.446c-.887-1.021-1.775-2.043-2.663-3.043a15.265,15.265,0,0,1-2.239-3.291,7.5,7.5,0,0,1-.836-3.66,7.148,7.148,0,0,1,2.484-5.5,8.45,8.45,0,0,1,5.94-1.835q5.8.207,6.094,6.8a2.259,2.259,0,0,1-1.191,1.343,4.541,4.541,0,0,1-2.006.7,1.576,1.576,0,0,1-1.371-.4c-.02-.067-.054-.354-.124-.863a11.9,11.9,0,0,0-.24-1.328,2.681,2.681,0,0,0-.684-1.147,2.278,2.278,0,0,0-1.383-.709,2.572,2.572,0,0,0-2.007.764,2.973,2.973,0,0,0-.822,2.061,3.655,3.655,0,0,0,.34,1.6,6.925,6.925,0,0,0,.744,1.347q.378.509,1.137,1.426c.507.613.822,1,.949,1.157a6.02,6.02,0,0,1,.379.476c.168.226.295.383.379.474,1.077,1.271,1.9,2.29,2.465,3.08a16.421,16.421,0,0,1,1.671,3.118,8.774,8.774,0,0,1,.768,3.746,7.756,7.756,0,0,1-8.352,7.8,6.147,6.147,0,0,1-4.354-1.937,5.878,5.878,0,0,1-1.689-4.461Z" fill="#fff"/>
            <path id="Path_195" data-name="Path 195" d="M549.15,217.687l-14.025,18.3,11.791,21.928,13.308-20.633Z" fill="#a48f7c"/>
            <path id="Path_196" data-name="Path 196" d="M539.869,236.442l8.758-11.427,6.9,12.215-8.31,12.883Z" fill="#a48f7c"/>
            <path id="Path_197" data-name="Path 197" d="M539.869,236.442l8.758-11.427,6.9,12.215-8.31,12.883Z" fill="none" stroke="#000" stroke-width="3"/>
            <path id="Path_198" data-name="Path 198" d="M803.235,226.742l-14.025,18.3L801,266.97l13.308-20.633Z" fill="#a48f7c"/>
            <path id="Path_199" data-name="Path 199" d="M793.954,245.5l8.758-11.427,6.9,12.215-8.31,12.883Z" fill="#a48f7c"/>
            <path id="Path_200" data-name="Path 200" d="M793.954,245.5l8.758-11.427,6.9,12.215-8.31,12.883Z" fill="none" stroke="#000" stroke-width="3"/>
          </g>
        </g>
      </g>
    </g>
  </g>
</svg>
