<svg xmlns="http://www.w3.org/2000/svg" width="134" height="29" viewBox="0 0 134 29">
  <g id="Group_3" data-name="Group 3" transform="translate(-60 -36)">
    <text id="ONTIX" transform="translate(114 59)" fill="#fff" font-size="24" font-family="Montserrat-Bold, Montserrat" font-weight="700"><tspan x="0" y="0">ONTIX</tspan></text>
    <path id="Subtraction_2" data-name="Subtraction 2" d="M36.788,24H3.211A3.55,3.55,0,0,0,0,20.771V17.5A5.5,5.5,0,0,0,5.161,12,5.5,5.5,0,0,0,0,6.5V3.228A3.551,3.551,0,0,0,3.211,0H36.788A3.551,3.551,0,0,0,40,3.228V6.5A5.515,5.515,0,0,0,40,17.5v3.267A3.551,3.551,0,0,0,36.788,24h0Zm-23.24-7.135a.646.646,0,0,0-.645.644v3.9a.645.645,0,0,0,1.291,0v-3.9A.646.646,0,0,0,13.549,16.865Zm0-7.135a.646.646,0,0,0-.645.644v3.9a.645.645,0,0,0,1.291,0v-3.9A.646.646,0,0,0,13.549,9.73Zm0-7.784a.646.646,0,0,0-.645.645v3.9a.645.645,0,1,0,1.291,0v-3.9A.646.646,0,0,0,13.549,1.946Z" transform="translate(60 38)" fill="#0049ff"/>
  </g>
</svg>
