<svg id="MapPin-r" xmlns="http://www.w3.org/2000/svg" width="14" height="18" viewBox="0 0 14 18">
  <path id="Path_1236" data-name="Path 1236" d="M14.484,8a3.824,3.824,0,0,1,2.463,1.02,3.824,3.824,0,0,1,1.02,2.463,3.824,3.824,0,0,1-1.02,2.463,3.824,3.824,0,0,1-2.463,1.02,3.824,3.824,0,0,1-2.463-1.02A3.824,3.824,0,0,1,11,11.484,3.824,3.824,0,0,1,12.02,9.02,3.824,3.824,0,0,1,14.484,8Zm0,1.393a2.294,2.294,0,0,0-1.478.612,2.3,2.3,0,0,0-.612,1.478,2.294,2.294,0,0,0,.612,1.478,2.3,2.3,0,0,0,1.478.612,2.294,2.294,0,0,0,1.478-.612,2.3,2.3,0,0,0,.612-1.478,2.294,2.294,0,0,0-.612-1.478A2.3,2.3,0,0,0,14.484,9.393Z" transform="translate(-7.484 -3.817)" fill="#0049FF" fill-rule="evenodd"/>
  <path id="Path_1237" data-name="Path 1237" d="M18.467,6.365A8.085,8.085,0,0,1,19,9.071a12.97,12.97,0,0,1-3.338,7.734,24.1,24.1,0,0,1-2.256,2.248s-.619.532-1.041.83a.631.631,0,0,1-.73,0s-.422-.3-1.041-.83a24.341,24.341,0,0,1-2.256-2.248S5,12.928,5,9.071a8.088,8.088,0,0,1,.533-2.706A8.026,8.026,0,0,1,7.05,4.071,7.934,7.934,0,0,1,9.321,2.538,7.866,7.866,0,0,1,12,2a7.863,7.863,0,0,1,2.679.538A7.925,7.925,0,0,1,16.95,4.071,8.016,8.016,0,0,1,18.467,6.365Zm-.74,2.706a6.618,6.618,0,0,0-.436-2.214A6.567,6.567,0,0,0,16.05,4.98a6.492,6.492,0,0,0-1.858-1.254A6.436,6.436,0,0,0,12,3.286a6.433,6.433,0,0,0-2.192.44A6.484,6.484,0,0,0,7.95,4.98,6.559,6.559,0,0,0,6.709,6.857a6.615,6.615,0,0,0-.436,2.214A11.568,11.568,0,0,0,9.3,15.962a22.636,22.636,0,0,0,2.119,2.112s.323.277.582.482c0,0,.259-.2.582-.482A22.878,22.878,0,0,0,14.7,15.962S17.727,12.447,17.727,9.071Z" transform="translate(-5 -2)" fill="#0049FF" fill-rule="evenodd"/>
</svg>
