<svg id="Message-5" xmlns="http://www.w3.org/2000/svg" width="14" height="13.317" viewBox="0 0 14 13.317">
  <path id="Message-5-2" data-name="Message-5" d="M10.767,3.5a9.323,9.323,0,0,0-4.034,0l-.31.069A4.506,4.506,0,0,0,4.064,4.931L7.738,7.556a1.74,1.74,0,0,0,2.024,0l3.674-2.625a4.506,4.506,0,0,0-2.359-1.367Zm3.268,2.267L10.357,8.39a2.765,2.765,0,0,1-3.215,0L3.465,5.762A4.507,4.507,0,0,0,3.022,6.88a8.418,8.418,0,0,0,0,4.057,4.509,4.509,0,0,0,3.4,3.316l.31.069a9.322,9.322,0,0,0,4.034,0l.31-.069a4.509,4.509,0,0,0,3.4-3.316,8.418,8.418,0,0,0,0-4.057A4.506,4.506,0,0,0,14.035,5.762ZM6.511,2.5a10.347,10.347,0,0,1,4.477,0l.31.069a5.534,5.534,0,0,1,4.173,4.069,9.443,9.443,0,0,1,0,4.551A5.534,5.534,0,0,1,11.3,15.253l-.31.069a10.347,10.347,0,0,1-4.477,0l-.31-.069a5.534,5.534,0,0,1-4.173-4.069,9.442,9.442,0,0,1,0-4.551A5.534,5.534,0,0,1,6.2,2.564Z" transform="translate(-1.75 -2.25)" fill="#fff" fill-rule="evenodd"/>
</svg>
