<svg id="Note_-_2" data-name="Note - 2" xmlns="http://www.w3.org/2000/svg" width="14.897" height="16" viewBox="0 0 14.897 16">
  <path id="Path_2941" data-name="Path 2941" d="M7.034,2.25a.61.61,0,0,1,.6.615v.2l.1-.025a10.342,10.342,0,0,1,4.92,0l.1.025v-.2a.6.6,0,1,1,1.208,0v.658a6.53,6.53,0,0,1,3.4,4.417,11.66,11.66,0,0,1,0,5.112,6.45,6.45,0,0,1-4.7,4.9,10.342,10.342,0,0,1-4.92,0,6.45,6.45,0,0,1-4.7-4.9,11.659,11.659,0,0,1,0-5.112,6.53,6.53,0,0,1,3.4-4.417V2.865A.61.61,0,0,1,7.034,2.25Zm-.6,2.689A5.34,5.34,0,0,0,4.211,8.216a10.406,10.406,0,0,0,0,4.562A5.23,5.23,0,0,0,8.02,16.756a9.155,9.155,0,0,0,4.356,0,5.23,5.23,0,0,0,3.809-3.978,10.406,10.406,0,0,0,0-4.562,5.34,5.34,0,0,0-2.219-3.276.6.6,0,1,1-1.208-.011V4.347q-.188-.062-.382-.11a9.156,9.156,0,0,0-4.356,0q-.194.047-.382.11v.581a.6.6,0,1,1-1.208.011Z" transform="translate(-2.75 -2.25)" fill="#0049ff" fill-rule="evenodd"/>
  <path id="Path_2942" data-name="Path 2942" d="M10.416,12.791a.541.541,0,0,1,.541-.541h2.166a.541.541,0,1,1,0,1.083H10.957A.541.541,0,0,1,10.416,12.791ZM8.25,14.957a.541.541,0,0,1,.541-.541h4.331a.541.541,0,1,1,0,1.083H8.791A.541.541,0,0,1,8.25,14.957Z" transform="translate(-2.211 -3.948)" fill="#0049ff" fill-rule="evenodd"/>
</svg>
