<svg id="Phone" xmlns="http://www.w3.org/2000/svg" width="14" height="14" viewBox="0 0 14 14">
  <path id="Phone-2" data-name="Phone" d="M4.669,2.368a2.592,2.592,0,0,1,.773-.118A2.282,2.282,0,0,1,7.635,4.613V7.426A2.283,2.283,0,0,1,5.442,9.788a2.591,2.591,0,0,1-.773-.118l-.192-.06q-.1-.031-.193-.068a10.271,10.271,0,0,0,4.673,4.673q-.037-.095-.068-.193l-.06-.192a2.592,2.592,0,0,1-.118-.773,2.283,2.283,0,0,1,2.363-2.192h2.813a2.283,2.283,0,0,1,2.363,2.192,2.592,2.592,0,0,1-.118.773l-.06.192a3.2,3.2,0,0,1-2.539,2.136,6.069,6.069,0,0,1-2.1,0l-.082-.015a11.337,11.337,0,0,1-8.99-8.99q-.008-.041-.015-.082a6.069,6.069,0,0,1,0-2.1A3.2,3.2,0,0,1,4.478,2.428h0l.192-.06ZM3.414,6.946,3.4,6.882a4.992,4.992,0,0,1,0-1.727,2.123,2.123,0,0,1,1.4-1.7h0L4.99,3.4h0a1.515,1.515,0,0,1,.452-.069A1.209,1.209,0,0,1,6.558,4.613V7.426A1.209,1.209,0,0,1,5.442,8.712a1.516,1.516,0,0,1-.452-.069L4.8,8.582A2.114,2.114,0,0,1,3.414,6.946Zm8.2,8.152a4.992,4.992,0,0,0,1.727,0,2.123,2.123,0,0,0,1.7-1.4l.06-.192a1.516,1.516,0,0,0,.069-.452,1.209,1.209,0,0,0-1.286-1.115H11.074a1.209,1.209,0,0,0-1.286,1.115,1.516,1.516,0,0,0,.069.452l.06.192a2.114,2.114,0,0,0,1.636,1.385Z" transform="translate(-2.25 -2.25)" fill="#fff" fill-rule="evenodd"/>
</svg>
